<?xml version="1.0" encoding="utf-8"?>
<!DOCTYPE svg PUBLIC "-//W3C//DTD SVG 20010904//EN" "http://www.w3.org/TR/2001/REC-SVG-20010904/DTD/svg10.dtd">
<svg version="1.0" xmlns="http://www.w3.org/2000/svg" width="1168px" height="1282px" viewBox="0 0 1168 1282" preserveAspectRatio="xMidYMid meet">
 <g fill="#000000">
  <path d="M467 700.6 c0 -0.9 -2.6 -2 -7.2 -3.1 -10.3 -2.5 -28 -8.7 -39.8 -14 -40.2 -17.8 -74.9 -46.9 -99.3 -83.3 -8.2 -12.3 -18.6 -33.7 -23.5 -48.3 -22 -66.3 -9 -137.2 35.5 -193.6 6.8 -8.6 24.4 -26.4 33.8 -34.1 34.2 -28 79.3 -46.9 125.5 -52.7 16.3 -2 46.7 -2 63 0 71.1 8.8 133 46.1 171.3 103.3 8.2 12.3 18.6 33.7 23.5 48.3 22 66.3 9 137.2 -35.5 193.6 -6.8 8.6 -24.4 26.4 -33.8 34.1 -21.8 17.9 -51.2 33.7 -78.7 42.3 -6.1 1.9 -10.8 3.9 -10.8 4.7 0 0.6 -0.7 1.2 -1.5 1.2 -1.3 0 -1.5 -2.1 -1.5 -13 0 -9.6 0.3 -13.2 1.3 -13.4 8 -2.2 27.7 -10.1 37.2 -14.8 59.1 -29.5 99.1 -80.9 110.1 -141.3 1.3 -7.1 1.8 -14.9 1.8 -27 0 -24.4 -3.4 -41.3 -12.9 -64.9 -23.3 -57.6 -78 -103.2 -144 -120.1 -21.3 -5.4 -33.3 -6.9 -56.5 -6.9 -14.8 0 -23.7 0.5 -32 1.8 -93.3 14.5 -164.4 79.1 -179.6 163.1 -2.5 13.8 -2.5 40.2 0 54 11 60.4 51 111.8 110.1 141.3 11.6 5.8 29 12.5 40.8 15.8 l5.7 1.5 0 13.5 c0 11.2 -0.2 13.4 -1.5 13.4 -0.8 0 -1.5 -0.6 -1.5 -1.4z"/>
 </g>
 <g fill="#21201e">
  <path d="M467 679.6 c0 -0.9 -2.2 -2.1 -5.7 -3 -15.6 -4.3 -43.3 -15.7 -43.3 -17.7 0 -0.5 1.6 -0.9 3.5 -0.9 1.9 0 3.5 0.4 3.5 0.9 0 0.5 1.2 1.1 2.8 1.4 1.5 0.3 7.7 2.5 13.7 5 6.1 2.5 14.7 5.5 19.3 6.8 8.1 2.4 8.2 2.4 8.2 5.6 0 1.8 -0.4 3.3 -1 3.3 -0.5 0 -1 -0.6 -1 -1.4z"/>
  <path d="M588 675.8 c0 -3.3 0.1 -3.3 8.8 -6.1 4.8 -1.5 12.3 -4.3 16.7 -6.2 4.4 -1.9 8.8 -3.5 9.7 -3.5 1 0 1.8 -0.4 1.8 -1 0 -0.5 1.6 -1 3.5 -1 1.9 0 3.5 0.4 3.5 0.9 0 1.9 -34 16.1 -38.6 16.1 -0.9 0 -1.8 0.9 -2.1 2 -0.9 3.3 -3.3 2.4 -3.3 -1.2z"/>
  <path d="M408 654.2 c-13 -7.6 -34 -23.1 -39.5 -29.2 -1.8 -2 -1.8 -2 1.7 -2 3.4 0 6.8 2.4 6.8 4.8 0 0.7 0.9 1.2 2.1 1.2 1.2 0 2.3 0.8 2.6 2 0.3 1.1 1.4 2 2.4 2 1 0 2.4 0.9 3.1 2 0.7 1.1 1.9 2 2.6 2 0.7 0 1.5 0.7 1.8 1.5 0.4 0.8 1.2 1.5 2 1.5 0.8 0 1.4 0.5 1.4 1 0 0.6 0.7 1 1.5 1 0.8 0 1.5 0.5 1.5 1 0 0.6 0.7 1 1.5 1 0.8 0 1.5 0.5 1.5 1 0 0.6 0.7 1 1.5 1 0.8 0 1.5 0.5 1.5 1 0 0.6 0.6 1 1.4 1 0.8 0 2.1 0.6 2.8 1.3 0.7 0.7 2.8 1.9 4.6 2.6 2.3 1 3.2 2 3.2 3.7 0 1.3 -0.3 2.4 -0.8 2.4 -0.4 0 -3.6 -1.7 -7.2 -3.8z"/>
  <path d="M634 655.6 c0 -1.7 0.9 -2.7 3.3 -3.7 1.7 -0.7 3.8 -1.9 4.5 -2.6 0.7 -0.7 2 -1.3 2.8 -1.3 0.8 0 1.4 -0.4 1.4 -1 0 -0.5 0.7 -1 1.5 -1 0.8 0 1.5 -0.4 1.5 -1 0 -0.5 0.7 -1 1.5 -1 0.8 0 1.5 -0.4 1.5 -1 0 -0.5 0.7 -1 1.5 -1 0.8 0 1.5 -0.4 1.5 -1 0 -0.5 0.6 -1 1.4 -1 0.8 0 1.6 -0.7 2 -1.5 0.3 -0.8 1.1 -1.5 1.8 -1.5 0.7 0 1.9 -0.9 2.6 -2 0.7 -1.1 2.1 -2 3.1 -2 1 0 2.1 -0.9 2.4 -2 0.3 -1.2 1.4 -2 2.6 -2 1.2 0 2.1 -0.6 2.1 -1.3 0 -2.4 3.5 -4.7 7 -4.7 3.3 0 3.3 0 1.5 2 -7.1 7.9 -42.8 33 -46.8 33 -0.4 0 -0.7 -1.1 -0.7 -2.4z"/>
  <path d="M353.2 609 c-23.4 -27.3 -39.3 -62.2 -43.7 -95.7 -0.6 -4.9 -0.5 -5.3 1.4 -5.3 1.6 0 2.1 0.6 2.1 2.6 0 4.8 5.1 25.7 8.7 35.4 1.9 5.2 3.7 10.6 4 12 0.3 1.4 0.9 2.7 1.3 3 1.4 1 6 10.9 6 13 0 1.1 0.6 2 1.4 2 0.8 0 1.8 1 2.2 2.2 0.3 1.2 1.3 2.8 2 3.6 0.8 0.7 1.4 2 1.4 2.8 0 0.8 0.5 1.4 1 1.4 0.6 0 1 0.6 1 1.4 0 0.8 0.7 1.6 1.5 2 0.8 0.3 1.5 1.2 1.5 2.1 0 0.8 0.5 1.5 1 1.5 0.6 0 1 0.6 1 1.4 0 0.8 0.7 1.6 1.5 2 0.8 0.3 1.5 1.4 1.5 2.5 0 1 0.9 2.1 2 2.4 1.4 0.3 2 1.4 2 3.1 0 1.9 0.5 2.6 1.8 2.6 3 0 5.4 3.4 5 7.2 l-0.3 3.3 -7.3 -8.5z"/>
  <path d="M689 613.8 c0 -3.7 2.4 -6.8 5.3 -6.8 1.2 0 1.7 -0.8 1.7 -2.6 0 -1.7 0.6 -2.8 2 -3.1 1.1 -0.3 2 -1.4 2 -2.4 0 -1.1 0.7 -2.2 1.5 -2.5 0.8 -0.4 1.5 -1.2 1.5 -2 0 -0.8 0.5 -1.4 1 -1.4 0.6 0 1 -0.7 1 -1.5 0 -0.9 0.7 -1.8 1.5 -2.1 0.8 -0.4 1.5 -1.2 1.5 -2 0 -0.8 0.5 -1.4 1 -1.4 0.6 0 1 -0.6 1 -1.4 0 -0.8 0.6 -2.1 1.4 -2.8 0.7 -0.8 1.7 -2.4 2 -3.6 0.4 -1.2 1.4 -2.2 2.2 -2.2 0.8 0 1.4 -0.9 1.4 -2 0 -2.1 4.6 -12 6 -13 0.4 -0.3 1 -1.6 1.3 -3 0.3 -1.4 2.1 -6.8 4 -12 3.6 -9.7 8.7 -30.6 8.7 -35.4 0 -2 0.5 -2.6 2.1 -2.6 1.9 0 2 0.4 1.4 5.3 -4.3 32.6 -19.6 66.8 -42 93.7 -8.9 10.7 -9.5 11.1 -9.5 6.8z"/>
  <path d="M505 518.6 c0 -2.4 3.1 -9.2 10.8 -23.5 10.3 -19.2 10.8 -20.1 13.7 -20.1 2.9 0 3.4 0.9 13.8 20.1 7.6 14.3 10.7 21.1 10.7 23.5 l0 3.4 -24.5 0 -24.5 0 0 -3.4z"/>
  <path d="M308.6 504.8 c-1.2 -4.8 -0.7 -7.8 1.4 -7.8 1.7 0 2 0.7 2 5 0 3.6 -0.4 5 -1.4 5 -0.7 0 -1.6 -1 -2 -2.2z"/>
  <path d="M738 502 c0 -4.3 0.3 -5 2 -5 1.5 0 2 0.7 2 2.8 0 4.2 -1.1 7.2 -2.6 7.2 -1 0 -1.4 -1.4 -1.4 -5z"/>
  <path d="M308 479.3 c0 -4.3 1.1 -7.3 2.6 -7.3 1 0 1.4 1.4 1.4 5 0 4.3 -0.3 5 -2 5 -1.5 0 -2 -0.7 -2 -2.7z"/>
  <path d="M738 477 c0 -3.6 0.4 -5 1.4 -5 1.5 0 2.6 3 2.6 7.3 0 2 -0.5 2.7 -2 2.7 -1.7 0 -2 -0.7 -2 -5z"/>
  <path d="M309.5 465.8 c4.4 -33.6 20.3 -68.5 43.7 -95.8 l7.3 -8.5 0.3 3.3 c0.4 3.8 -2 7.2 -5 7.2 -1.3 0 -1.8 0.7 -1.8 2.6 0 1.7 -0.6 2.8 -2 3.1 -1.1 0.3 -2 1.4 -2 2.4 0 1.1 -0.7 2.2 -1.5 2.5 -0.8 0.4 -1.5 1.2 -1.5 2 0 0.8 -0.4 1.4 -1 1.4 -0.5 0 -1 0.7 -1 1.5 0 0.9 -0.7 1.8 -1.5 2.1 -0.8 0.4 -1.5 1.2 -1.5 2 0 0.8 -0.4 1.4 -1 1.4 -0.5 0 -1 0.6 -1 1.4 0 0.8 -0.6 2.1 -1.4 2.8 -0.7 0.8 -1.7 2.4 -2 3.6 -0.4 1.2 -1.4 2.2 -2.2 2.2 -0.8 0 -1.4 0.9 -1.4 2 0 2.1 -4.6 12 -6 13 -0.4 0.3 -1 1.6 -1.3 3 -0.3 1.4 -2.1 6.8 -4 12 -3.6 9.7 -8.7 30.6 -8.7 35.4 0 2 -0.5 2.6 -2.1 2.6 -1.9 0 -2 -0.4 -1.4 -5.2z"/>
  <path d="M737 468.4 c0 -4.8 -5.1 -25.7 -8.7 -35.4 -1.9 -5.2 -3.7 -10.6 -4 -12 -0.3 -1.4 -0.9 -2.7 -1.3 -3 -1.4 -1 -6 -10.9 -6 -13 0 -1.1 -0.6 -2 -1.4 -2 -0.8 0 -1.8 -1 -2.2 -2.2 -0.3 -1.2 -1.3 -2.8 -2 -3.6 -0.8 -0.7 -1.4 -2 -1.4 -2.8 0 -0.8 -0.4 -1.4 -1 -1.4 -0.5 0 -1 -0.6 -1 -1.4 0 -0.8 -0.7 -1.6 -1.5 -2 -0.8 -0.3 -1.5 -1.2 -1.5 -2.1 0 -0.8 -0.4 -1.5 -1 -1.5 -0.5 0 -1 -0.6 -1 -1.4 0 -0.8 -0.7 -1.6 -1.5 -2 -0.8 -0.3 -1.5 -1.4 -1.5 -2.5 0 -1 -0.9 -2.1 -2 -2.4 -1.4 -0.3 -2 -1.4 -2 -3.1 0 -1.9 -0.5 -2.6 -1.8 -2.6 -3 0 -5.4 -3.4 -5 -7.2 l0.3 -3.3 7.3 8.5 c23.4 27.3 39.3 62.2 43.7 95.8 0.6 4.8 0.5 5.2 -1.4 5.2 -1.6 0 -2.1 -0.6 -2.1 -2.6z"/>
  <path d="M368.5 354 c7.1 -7.9 42.8 -33 46.8 -33 0.4 0 0.7 1.1 0.7 2.4 0 1.7 -0.9 2.7 -3.2 3.7 -1.8 0.7 -3.9 1.9 -4.6 2.6 -0.7 0.7 -2 1.3 -2.8 1.3 -0.8 0 -1.4 0.5 -1.4 1 0 0.6 -0.7 1 -1.5 1 -0.8 0 -1.5 0.5 -1.5 1 0 0.6 -0.7 1 -1.5 1 -0.8 0 -1.5 0.5 -1.5 1 0 0.6 -0.7 1 -1.5 1 -0.8 0 -1.5 0.5 -1.5 1 0 0.6 -0.6 1 -1.4 1 -0.8 0 -1.6 0.7 -2 1.5 -0.3 0.8 -1.1 1.5 -1.8 1.5 -0.7 0 -1.9 0.9 -2.6 2 -0.7 1.1 -2.1 2 -3.1 2 -1 0 -2.1 0.9 -2.4 2 -0.3 1.2 -1.4 2 -2.6 2 -1.2 0 -2.1 0.6 -2.1 1.3 0 2.4 -3.5 4.7 -7 4.7 -3.3 0 -3.3 0 -1.5 -2z"/>
  <path d="M674.7 354.2 c-1 -1 -1.7 -2.4 -1.7 -3 0 -0.7 -0.9 -1.2 -2.1 -1.2 -1.2 0 -2.3 -0.8 -2.6 -2 -0.3 -1.1 -1.4 -2 -2.4 -2 -1 0 -2.4 -0.9 -3.1 -2 -0.7 -1.1 -1.9 -2 -2.6 -2 -0.7 0 -1.5 -0.7 -1.8 -1.5 -0.4 -0.8 -1.2 -1.5 -2 -1.5 -0.8 0 -1.4 -0.4 -1.4 -1 0 -0.5 -0.7 -1 -1.5 -1 -0.8 0 -1.5 -0.4 -1.5 -1 0 -0.5 -0.7 -1 -1.5 -1 -0.8 0 -1.5 -0.4 -1.5 -1 0 -0.5 -0.7 -1 -1.5 -1 -0.8 0 -1.5 -0.4 -1.5 -1 0 -0.5 -0.6 -1 -1.4 -1 -0.8 0 -2.1 -0.6 -2.8 -1.3 -0.7 -0.7 -2.8 -1.9 -4.5 -2.6 -2.4 -1 -3.3 -2 -3.3 -3.7 0 -1.3 0.3 -2.4 0.7 -2.4 4 0 39.7 25.1 46.8 33 1.8 2 1.8 2 -1.7 2 -2.1 0 -4.1 -0.7 -5.1 -1.8z"/>
  <path d="M418 320.1 c0 -0.5 3 -2.3 6.8 -4.1 17.7 -8.6 43.6 -16.3 64.5 -19.4 13.5 -2 13.7 -2 13.7 0.3 0 1.5 -1.1 1.9 -6.7 2.5 -16.6 1.7 -45.5 9.6 -61.1 16.6 -3.5 1.7 -7.3 3 -8.3 3 -1.1 0 -1.9 0.5 -1.9 1 0 0.6 -1.6 1 -3.5 1 -1.9 0 -3.5 -0.4 -3.5 -0.9z"/>
  <path d="M625 320 c0 -0.5 -0.8 -1 -1.9 -1 -1 0 -4.8 -1.3 -8.3 -3 -15.6 -7 -44.5 -14.9 -61.1 -16.6 -5.6 -0.6 -6.7 -1 -6.7 -2.5 0 -2.3 0.2 -2.3 13.7 -0.3 20.9 3.1 46.8 10.8 64.6 19.4 3.7 1.8 6.7 3.6 6.7 4.1 0 0.5 -1.6 0.9 -3.5 0.9 -1.9 0 -3.5 -0.4 -3.5 -1z"/>
  <path d="M505 296.6 c0 -1.6 3 -2.6 7.8 -2.6 2.5 0 3.2 0.4 3.2 2 0 1.8 -0.7 2 -5.5 2 -4 0 -5.5 -0.4 -5.5 -1.4z"/>
  <path d="M534 296 c0 -1.6 0.7 -2 3.3 -2 4.7 0 7.7 1 7.7 2.6 0 1 -1.5 1.4 -5.5 1.4 -4.8 0 -5.5 -0.2 -5.5 -2z"/>
 </g>
 <g fill="#ff0000">
  <path d="M588 795.5 c0 -54 0.2 -61.5 1.5 -61.5 0.8 0 1.5 0.6 1.5 1.3 0 0.6 19.2 13.5 42.6 28.6 28.7 18.5 42.3 27.8 42 28.7 -0.4 1 0.3 1.4 1.9 1.4 l2.5 0 0 30 0 30 -44.4 0 c-38.5 0 -44.5 0.2 -45 1.5 -2.3 6 -2.6 -1.9 -2.6 -60z"/>
  <path d="M467 852.5 c0 -1.3 -6.1 -1.5 -48.5 -1.5 l-48.5 0 0 -29.5 0 -29.5 2.5 0 c1.5 0 2.3 -0.5 2 -1.2 -0.3 -0.8 17 -12.6 46 -31.3 25.6 -16.5 46.5 -30.6 46.5 -31.2 0 -0.7 0.7 -1.3 1.5 -1.3 1.3 0 1.5 7.7 1.5 63.5 0 55.8 -0.2 63.5 -1.5 63.5 -0.8 0 -1.5 -0.7 -1.5 -1.5z"/>
 </g>
 <g fill="#0070c0">
  <path d="M706.3 1167.1 c-7.7 -3.6 -10.5 -13.9 -6.3 -22.7 3.9 -8 15.2 -15.8 32.6 -22.5 l4.1 -1.6 1.6 -8.4 c1 -4.6 1.7 -8.8 1.7 -9.3 0 -0.5 -3.4 2.4 -7.6 6.4 -7.5 7.1 -15.7 12 -20.2 12 -6.2 0 -13 -5.6 -15.2 -12.7 -0.6 -2.1 -1.3 -4.4 -1.6 -5.1 -0.2 -0.9 -2.9 0.9 -7.3 5 -8.9 8 -17.9 13.4 -24.7 14.8 -4.7 1 -5.9 0.9 -9.1 -0.7 -10.6 -5.2 -10.7 -15.2 -0.6 -42.5 6 -16.3 5.6 -21.1 -1.5 -17.4 -4 2 -20.6 19.9 -22.8 24.4 -1.6 3.4 -2.5 8.9 -4.1 25.1 l-0.8 7.4 -9.1 2.2 -9.2 2.2 -0.6 -5.1 c-0.3 -2.8 -0.6 -7.5 -0.6 -10.3 0 -2.9 -0.3 -5.3 -0.6 -5.3 -0.3 0 -3.3 2.3 -6.7 5.1 -7.1 5.8 -19.7 12.1 -27.7 13.9 -6.7 1.6 -22.8 1.6 -29.3 0.1 -12.1 -2.8 -23.8 -12.2 -27 -21.5 -2.3 -6.8 -2.2 -16.3 0.4 -23.1 4.2 -11.2 17.2 -21.4 31.4 -24.6 3 -0.7 5.5 -1.5 5.5 -1.8 0 -0.3 -2.1 -1.7 -4.6 -3 -19 -10.1 -19 -33 0 -46.6 9.7 -6.9 16.8 -9 31.2 -9 11.7 0 12.2 0.1 16.9 3 2.6 1.7 5.7 4.7 6.9 6.7 l2.1 3.7 -2.3 4.5 c-2.9 5.4 -7.6 10 -9.5 9.3 -0.7 -0.3 -1.9 -3.1 -2.6 -6.3 -2.4 -10.8 -6.4 -15.4 -13.3 -15.4 -7.3 0 -12.9 4.7 -17.5 14.5 -2.2 4.8 -2.7 7.5 -2.7 13.5 -0.1 12.3 4.1 17.2 15.6 18.5 l6 0.7 -0.6 4.6 c-0.9 6.8 -1.6 7.2 -11.9 7.2 -10.8 0 -16 2 -20.7 8 -4.7 5.9 -6.2 10.6 -6.3 19 -0.1 9 2.2 14.8 7.8 20.5 13.2 13.1 37.2 10.3 54.6 -6.5 5.3 -5.2 5.8 -5.9 6.8 -12.2 1.4 -8.1 5.8 -22 9.9 -31 l2.9 -6.4 9.8 -1.8 c5.3 -0.9 9.9 -1.5 10.1 -1.3 0.2 0.2 -1.1 5.1 -3 10.9 -1.9 5.7 -3.8 12.2 -4.2 14.4 l-0.7 3.9 11.9 -11.6 c6.6 -6.3 13.9 -12.7 16.4 -14.2 9.6 -5.6 17.2 -5 20.6 1.4 2.6 5.2 1.3 13.1 -5.5 32.9 -3.4 9.6 -6.1 18.9 -6.1 20.6 0 8.9 9.6 6.7 20.8 -4.9 3.7 -3.8 4.6 -5.6 5.8 -11.1 4.7 -22.3 24.6 -42.5 42 -42.7 6.8 -0.1 9.8 0.9 14.2 4.5 l3.1 2.7 8.7 -3.6 c4.7 -2 8.8 -3.4 9.1 -3.2 0.2 0.2 -0.5 3.8 -1.6 7.8 -2.6 9.3 -11.3 55.7 -10.9 57.6 0.5 2.1 11.7 -5.1 18.8 -12.1 4.8 -4.8 6 -6.6 6 -9.1 0 -14.8 11.2 -52.7 23 -78.2 l5.1 -10.8 11.7 -4.3 c6.4 -2.3 12.5 -4.2 13.5 -4.2 1.1 0 2.4 1.4 3.4 3.8 2.1 5 1.2 23.2 -1.5 31.7 -4.5 14.1 -13.7 29.6 -26.2 44.2 l-6.1 7.2 -0.6 8.3 c-0.7 10 0.7 16 4.7 20 5.8 5.8 14.4 3 26.8 -8.7 7.5 -7.1 7.7 -7.4 9 -14.1 0.7 -3.8 3.4 -13.2 6 -20.9 l4.7 -14 10.5 -2.2 c5.8 -1.2 11 -2.2 11.6 -2.3 0.7 0 -1.3 7.8 -4.7 18.4 -9.5 29.9 -10.6 38.6 -5.2 41.4 2.7 1.5 8.9 -1 13.5 -5.5 11.9 -11.4 27.2 -32.3 32.8 -44.7 l2.9 -6.4 9.5 -1.8 c5.3 -1 9.8 -1.5 10.1 -1.3 0.2 0.3 0 2.1 -0.5 4 -1.8 6.3 -1.2 9.5 4.2 19.6 4.8 8.9 5.2 10.4 5.2 16.3 0 8.8 -3.7 16.3 -12.5 25.1 -8.8 8.9 -17.5 13.2 -26.7 13.3 -11.2 0.1 -18.8 -5.1 -16.3 -11.2 1.7 -3.9 9.7 -12.5 11.3 -12 0.7 0.2 2.5 2.8 3.9 5.7 3 6.3 6 9.1 9.8 9.1 5.8 0 13.7 -7.7 14.8 -14.4 0.7 -4.4 -1.5 -10.6 -7 -19.6 -2.2 -3.6 -4.8 -8.5 -5.9 -10.9 l-1.9 -4.4 -5 7.4 c-18.4 26.8 -44.1 50.9 -54.3 50.9 -5.4 0 -12.6 -8.5 -12.6 -15.1 0 -1.3 -0.3 -3.4 -0.6 -4.5 -0.5 -2 -1.3 -1.6 -9.2 4.8 -12.1 9.6 -21.2 14 -29.4 14.1 -3.9 0 -7.5 -0.6 -9.4 -1.6 -4.8 -2.5 -9.2 -8.2 -10.9 -14.2 l-1.6 -5.4 -7.1 5.5 c-3.9 3 -10.2 6.9 -13.9 8.7 -6.6 3 -6.8 3.2 -8.9 9.2 -10.9 30.3 -32.8 49.1 -48.7 41.6z m11.2 -5.5 c1.8 -0.8 4.7 -3.3 6.4 -5.6 3 -4.2 8.4 -17.8 9.7 -24.5 0.6 -3.6 0.6 -3.7 -1.7 -3 -4.9 1.5 -16.7 7.7 -20.2 10.6 -9 7.4 -10.1 19.1 -2.2 22.5 3.8 1.7 3.9 1.7 8 0z m17.5 -60.1 c7.1 -6.8 15.9 -35 13.6 -43.9 -1.5 -5.9 -8.3 -8.4 -14.5 -5.2 -14.7 7.7 -23.6 44.7 -12.4 51.6 3.1 1.8 10.1 0.5 13.3 -2.5z m82 -42.2 c6.2 -8.2 16.3 -28.5 18.5 -36.9 2.7 -11.1 1.6 -21.4 -2.4 -21.4 -2.5 0 -7.6 9.6 -12 22.7 -5.1 15.5 -11.5 42.3 -10.1 42.3 0.5 0 3.1 -3 6 -6.7z"/>
  <path d="M156.1 1122.5 c-18.7 -4.2 -32.4 -18 -36.2 -36.4 -1.5 -7.5 -0.6 -23.8 2 -33.1 4.2 -15.5 12.2 -29.3 23.5 -40.6 13.4 -13.4 27.9 -20.4 42.1 -20.4 7.8 0 12.3 1.3 18.1 5.3 15.3 10.4 15.1 35.7 -0.4 52.9 -5.9 6.5 -11.3 9.1 -20.1 9.6 -6.8 0.3 -8 0.1 -11.1 -2 -1.9 -1.3 -4.1 -3.5 -4.8 -4.8 -1.4 -2.8 -1 -9.3 0.8 -11.5 1.1 -1.3 1.6 -1.2 3.7 0.5 7.4 5.8 18.4 -0.8 23.3 -13.8 6.2 -16.2 1.3 -30.2 -10.6 -30.2 -5.5 0 -9.2 1.8 -15.7 7.9 -16.7 15.4 -28.2 48 -24.8 70.1 2.3 15 10.1 26.4 22 32.3 6.1 3 7.3 3.2 16.6 3.2 9.3 0 10.5 -0.2 16.6 -3.2 3.5 -1.8 9.2 -5.7 12.6 -8.8 5.9 -5.3 6.2 -5.8 6.8 -11.3 2.6 -23.2 11 -51.4 23 -76.7 l5.1 -11 11.6 -4.3 c6.4 -2.3 12.3 -4.2 13.2 -4.2 6.9 0 6.9 24.2 -0.1 41.9 -4.6 11.8 -14.1 26.5 -25.3 39.3 l-5 5.7 0 10.6 c0 8.5 0.4 11.3 1.9 14.3 3.2 6.2 9.1 7.8 16.6 4.3 4.2 -2 19.4 -14.5 19.9 -16.4 0.2 -0.7 1.1 -4.8 2.1 -9.2 0.9 -4.4 3.5 -13.6 5.7 -20.5 l4 -12.6 9.8 -1.8 c5.4 -0.9 10.6 -2 11.7 -2.2 1.8 -0.5 1.7 0.2 -1.4 9.8 -6 18.1 -10.3 35.1 -11 42.5 -0.5 6.7 -0.4 7.3 2 9.7 1.4 1.4 3.7 2.6 5 2.6 4.6 0 14.9 -9.5 19 -17.5 0.8 -1.6 4.2 -12 7.6 -22.9 3.4 -11 6.2 -20 6.4 -20.1 0.6 -0.5 22.9 -4.6 23.1 -4.3 0.2 0.2 -1.9 7.3 -4.6 15.8 -6.1 19.6 -9.8 33.9 -9.8 38.3 0 4.9 2.8 8 7 7.9 3.6 -0.1 6.2 -1.7 15.1 -9.4 5.6 -4.8 5.7 -5 6.9 -12.6 2.8 -17.9 13.6 -49.4 24.1 -70.8 l6.9 -14.2 14.7 -4.1 c8.2 -2.3 15.8 -4.1 17.1 -4.1 4 0 6.4 5.4 5.9 13 -0.9 12.9 -10.5 28.6 -29.7 48.4 l-12.7 13.1 -2.3 9.5 c-3.1 13.5 -3.7 22.8 -1.6 26.8 4 7.8 13.1 6.7 21.2 -2.6 l3.1 -3.6 -2.1 -4.6 c-1.6 -3.5 -2.1 -6.4 -2 -13 0.1 -9.6 2.3 -16.8 7.8 -24.7 3.8 -5.5 6.8 -7.9 11.5 -9.3 3 -0.8 3.6 -0.6 6.2 2 2.3 2.3 2.9 3.7 2.9 7.3 0 8.2 -4.9 21.2 -13.4 35.2 -3.4 5.6 -3.5 6 -1.8 7.8 6.2 6.8 16.6 6.1 22.6 -1.5 l2.6 -3.3 0 4.7 c0 4.6 -0.1 4.8 -4.7 7.5 -6.9 4 -14.2 3.9 -20.9 -0.3 l-4.9 -3 -6.5 6.6 c-11.1 11.2 -18 15 -27.5 15 -8.7 0 -15.6 -6.6 -17.2 -16.6 -0.3 -1.8 -1 -3.4 -1.5 -3.4 -0.6 0 -3.8 2.5 -7.1 5.6 -12.9 11.6 -23.4 16.6 -30.2 14.4 -6.1 -2 -10.5 -9.4 -10.5 -17.8 l0 -3.4 -8 7.5 c-10.6 9.8 -18.6 14.1 -26.2 14.2 -4.7 0 -6.1 -0.4 -8.3 -2.5 -3.6 -3.3 -6.5 -9.6 -6.5 -14.2 0 -2.1 -0.5 -3.8 -1 -3.8 -0.6 0 -3.9 2.4 -7.3 5.3 -20.9 17.7 -38.1 20 -47.5 6.3 -1.8 -2.7 -3.5 -6.6 -3.8 -8.7 -0.4 -2.2 -0.9 -3.9 -1.1 -3.9 -0.3 0 -3 2.2 -6 5 -14.9 13.2 -39.5 19.8 -58.2 15.5z m96.8 -64.1 c13.3 -17.5 23.2 -46.2 18.9 -54.4 -3.3 -6.3 -7.9 -0.7 -14.5 17.8 -3.2 8.9 -9.3 31.6 -10.9 40.6 -0.9 5 0.2 4.4 6.5 -4z m165.3 -12 c13 -13.5 23.8 -30.8 23.8 -38.1 0 -6.5 -3.1 -8.9 -8.1 -6.2 -4.6 2.4 -12.5 18.5 -19.3 39.3 -2 6 -3.6 11 -3.6 11.2 0 1 1.4 -0.1 7.2 -6.2z"/>
  <path d="M966.8 1113.8 c-1.2 -39.1 5.4 -65.7 25.2 -101.2 l5.5 -10 12.7 -4.7 c7 -2.6 14.2 -5.1 16.2 -5.4 3.1 -0.6 3.6 -0.4 4.9 2.2 5.5 10.8 1.1 25.9 -14.4 49 -3.8 5.6 -6.9 10.4 -6.9 10.7 0 0.3 4.3 -1.7 9.5 -4.5 11.3 -5.8 17 -6.5 21 -2.5 5.2 5.3 4.4 12.9 -4 37 -5.5 15.8 -6.5 21.2 -4.3 23.4 3.2 3.2 11.2 -1.1 19.8 -10.5 l5 -5.5 0 5 c0 4.8 -0.1 5 -6.7 10.9 -18 15.8 -30.8 20 -38.4 12.4 -1.5 -1.5 -3.3 -4.7 -3.9 -7.1 -1.6 -5.8 0.7 -16.7 6.7 -31.8 2.9 -7.3 4.7 -13.4 4.7 -16.2 0.1 -4.2 -0.1 -4.5 -2.6 -4.8 -3.4 -0.4 -7.7 1.8 -15.4 7.9 -9.8 7.7 -11.1 10 -12.4 21.5 -0.6 5.4 -1.4 14.4 -1.8 19.9 l-0.7 10 -7.5 1.7 c-4.1 0.9 -8.5 2 -9.7 2.3 -2.1 0.5 -2.2 0.2 -2.5 -9.7z m36.7 -61.3 c8.1 -10.4 16.1 -22.7 19 -29.2 5.1 -11.4 5.4 -21.3 0.6 -21.3 -6.9 0 -22.8 31.2 -28.4 55.8 -1.4 6.3 -1.4 6.3 0.5 4.5 1.2 -1 4.9 -5.4 8.3 -9.8z"/>
  <path d="M866.9 1029.1 c-1.4 -0.5 -3.5 -1.4 -4.7 -2 l-2.2 -1.2 3 -5.7 c1.6 -3.1 3 -6 3 -6.4 0 -0.4 0.4 -1.8 1 -3.3 l1 -2.6 3.9 2.1 c4.8 2.4 11.8 2.6 14.9 0.4 2.3 -1.6 2.3 -1.6 1.7 2.2 -1.1 6.9 -3.6 12.3 -6.5 14.4 -3.2 2.3 -11.1 3.4 -15.1 2.1z"/>
  <path d="M466.8 679.3 c-0.3 -1.2 -2.7 -2.4 -7.4 -3.7 -44.8 -12.3 -88 -41.7 -114.8 -77.9 -26.3 -35.6 -39.5 -80.3 -35.8 -121.7 5.6 -63 40.5 -116.1 99.1 -150.7 24.8 -14.7 55.8 -25 88.1 -29.4 12.2 -1.7 45.8 -1.7 58 0 69.6 9.4 127.7 45.4 161 99.6 19.4 31.6 29.2 71.7 26.2 107.1 -5.1 59.2 -35.7 109.2 -88.6 144.5 -16.8 11.2 -45.3 24.5 -58.3 27.4 -1.9 0.4 -3.3 1.3 -3.3 2.1 0 0.8 -0.7 1.4 -1.6 1.4 -1.1 0 -1.4 -0.9 -1.2 -3.7 l0.3 -3.6 9.5 -3.3 c19.6 -6.6 34.3 -13.9 51.7 -25.5 48.7 -32.7 78.6 -79.2 85.9 -133.9 5.5 -41.8 -8.3 -88.4 -37.5 -126.5 -19.1 -24.9 -51.6 -49.9 -82.1 -63 -34 -14.7 -71.8 -21.4 -105.8 -18.7 -49.4 3.9 -92.5 21.1 -128.9 51.5 -37.6 31.4 -60.6 72.7 -66.9 119.7 -1.7 13.3 -1.7 23.7 0 37 7.3 54.7 37.1 101.1 85.9 133.9 21.3 14.3 38.2 21.8 68.5 30.7 1.7 0.5 1.6 8.4 -0.2 8.4 -0.7 0 -1.6 -0.8 -1.8 -1.7z"/>
  <path d="M364.8 252.1 c-22.9 -7.4 -28.4 -46.6 -12.2 -85 12.1 -28.4 33.2 -46.7 61 -52.7 14.4 -3.1 39.7 -2.1 55.2 2.2 4.8 1.3 5.2 1.7 5.2 4.4 0 2 -1.6 5.1 -4.6 9.2 -11 14.9 -23.3 47.6 -28 74.3 -2.6 15 -1.5 23.6 3.7 27.9 6.3 5.4 15.7 2.6 26.1 -7.6 l6.1 -6.1 -0.6 5.3 c-0.6 4.6 -1.3 6.1 -4.9 9.8 -9.5 9.7 -23.4 17.8 -32.7 18.9 -14 1.6 -23.1 -6.7 -25.7 -23.4 l-0.6 -4.2 -10.7 10.8 c-12.4 12.6 -18.5 16.1 -28.3 16.7 -3.5 0.2 -7.5 0 -9 -0.5z m28.7 -20.5 c4.2 -1.8 12.4 -9.3 16.9 -15.5 2.5 -3.4 3.5 -6.1 4.1 -10.6 3.1 -26 13.9 -54.1 27.8 -72.8 l6.6 -8.7 -2.7 -1.4 c-9.4 -4.7 -23.6 -4.6 -33.6 0.3 -7.6 3.7 -18.5 14.6 -24 24 -7.5 12.8 -14.3 32.9 -16.7 49.1 -3.8 26.1 5.9 42.1 21.6 35.6z"/>
  <path d="M493.7 251.6 c-5.8 -1.6 -9.4 -4.1 -12.4 -8.5 -2.5 -3.6 -3.9 -10.7 -2.9 -14.6 0.7 -2.9 9.1 -8.7 15.9 -11.1 3.8 -1.4 4.3 -1.3 5.5 0.3 0.9 1.3 1.1 3.3 0.5 7.3 -0.4 3 -0.8 7.7 -0.7 10.4 0.1 4.2 0.6 5.4 3.3 7.8 5.4 4.8 13.4 3.4 20.3 -3.7 7.9 -8.1 12.9 -23 16.8 -50 3.8 -26.2 7.8 -36.4 18.1 -46 12.6 -11.7 29.9 -13.8 20.9 -2.5 -4.9 6.2 -6.8 12.4 -9.5 32.2 -4.7 33.1 -8.7 45.3 -19.2 58.3 -6 7.4 -17.4 15.3 -26.8 18.4 -8.8 2.9 -22.9 3.7 -29.8 1.7z"/>
  <path d="M568.5 252.1 c-7.5 -1.9 -11.5 -5.5 -11.5 -10.1 0 -3.2 3.7 -9.8 6.6 -11.6 3.4 -2.3 5 -0.6 6.4 6.4 1.3 7.1 2.6 9.2 5.6 9.2 7.5 0 14.9 -17.9 16.1 -38.7 0.7 -12.7 -0.6 -18.1 -5.4 -22.3 -1.8 -1.7 -4.2 -3 -5.1 -3 -1.5 0 -1.7 -0.7 -1.4 -3.5 0.4 -3 0.8 -3.5 2.9 -3.5 3.5 0 9 -2.8 11.3 -5.7 3.6 -4.6 6.1 -13.2 6.1 -21 0 -12 -5 -20.5 -15.6 -26.1 -4.7 -2.5 -5.8 -2.7 -18 -2.7 -11.1 0 -14 0.4 -19.8 2.4 -7.9 2.7 -20.1 10.5 -24.7 15.8 -10.3 11.6 -10.5 26.2 -0.5 31 7 3.3 3.6 8.2 -8.3 12 -4.8 1.5 -5.7 1.6 -8 0.2 -1.4 -0.8 -3.9 -3.9 -5.5 -6.9 -2.5 -4.8 -2.8 -6.4 -2.5 -12 0.6 -11 7.7 -23.2 18.8 -32.3 6 -5.1 20.8 -12.3 30 -14.8 11 -3 32.9 -3.7 44.1 -1.5 25.3 5.2 39.9 22.3 34.5 40.7 -2.8 10 -10.9 17.3 -24.1 22.1 -3.6 1.2 -6.5 2.5 -6.5 2.9 0 0.3 2.7 1.8 5.9 3.4 7.3 3.4 13.3 9.4 16.2 16 2.9 6.6 3 18.7 0.1 26.2 -4.2 11.1 -14.3 20.9 -25.9 25.3 -6 2.2 -17.2 3.3 -21.8 2.1z"/>
  <path d="M672.3 251.6 c-18.8 -4.3 -33.8 -19.2 -37.9 -37.4 -2.2 -9.7 -1.4 -26.4 1.6 -37.2 6.4 -22.4 20.4 -42.1 38.3 -53.8 25.4 -16.6 51.1 -13.8 60.4 6.5 1.9 4.2 2.4 6.9 2.4 13.3 0 13.2 -3.6 22.4 -12.3 31.6 -7 7.4 -13.3 10.4 -22 10.4 -4 0 -8 -0.6 -9.6 -1.4 -7.1 -3.7 -9.8 -10.5 -6.7 -17 l1.8 -3.7 2.6 2.5 c4.9 4.7 12.8 3.1 18.8 -3.7 10 -11.4 12.1 -30.3 4.4 -38.9 -2.2 -2.5 -3.7 -3.2 -7.8 -3.5 -7.2 -0.7 -12.7 2.1 -20.5 10.7 -7.2 7.8 -11.5 14.6 -16.4 25.8 -6.9 16 -10 35.7 -7.5 48.7 2.6 14 11.3 26 23 31.8 6.2 3 7.2 3.2 17.6 3.2 10.3 0 11.4 -0.2 17.6 -3.1 4.1 -2 9.3 -5.7 13.8 -9.9 l7.1 -6.7 0 5.1 c0 5 0 5.1 -6.6 10.5 -8.3 6.8 -17.7 11.8 -27.4 14.6 -9.8 2.7 -26.3 3.5 -34.7 1.6z"/>
 </g>
 <g fill="#bf9000">
  <path d="M536.7 964.5 c-3.1 -6.3 -5.7 -12.9 -5.7 -14.5 0 -2.7 0.3 -3 3.3 -3 3.1 0 3.5 0.4 7.7 9.1 l4.5 9 4.5 -9 c4.2 -8.7 4.5 -9.1 7.7 -9.1 3 0 3.3 0.3 3.3 3 0 1.6 -2.6 8.2 -5.7 14.5 l-5.8 11.5 -4 0 -4 0 -5.8 -11.5z"/>
  <path d="M486.6 923.4 c-1.2 -3 -0.6 -5.4 1.2 -5.4 1 0 2.9 -1.1 4.2 -2.5 1.6 -1.7 3.4 -2.5 5.7 -2.5 2.9 0 3.3 0.3 3.3 2.8 -0.1 5.7 -12.6 12.3 -14.4 7.6z"/>
  <path d="M483.7 916.3 c-0.4 -0.3 -0.7 -1.5 -0.7 -2.5 0 -1 -0.4 -1.8 -1 -1.8 -0.5 0 -1.3 -1.8 -1.6 -4 -0.4 -2.2 -1 -4 -1.5 -4 -0.5 0 -0.9 -1.1 -0.9 -2.5 0 -1.4 -0.4 -2.5 -1 -2.5 -0.5 0 -1.3 -1.8 -1.6 -4 -0.4 -2.2 -1 -4 -1.5 -4 -0.5 0 -0.9 -1.6 -0.9 -3.5 0 -3.3 0.2 -3.5 3.5 -3.5 3.1 0 3.5 0.3 3.5 2.5 0 1.4 0.4 2.5 1 2.5 0.5 0 1.3 1.8 1.6 4 0.4 2.2 1 4 1.5 4 0.5 0 0.9 1.1 0.9 2.5 0 1.4 0.4 2.5 1 2.5 0.5 0 1.3 1.8 1.6 4 0.4 2.2 1 4 1.5 4 0.5 0 0.9 1.6 0.9 3.5 0 3.2 -0.3 3.5 -2.8 3.5 -1.6 0 -3.2 -0.3 -3.5 -0.7z"/>
  <path d="M510.6 913.4 c-0.3 -0.9 -0.6 -2.8 -0.6 -4.4 0 -2.4 0.5 -2.9 2.8 -3.3 l2.7 -0.4 -2.7 -0.2 c-2.5 -0.1 -2.8 -0.5 -2.8 -3.5 0 -1.8 0.7 -3.9 1.5 -4.6 0.8 -0.7 1.5 -2.5 1.5 -4.1 0 -2.2 -0.5 -2.9 -2 -2.9 -1.1 0 -2 -0.4 -2 -1 0 -0.5 -0.8 -1 -1.9 -1 -4.3 0 -8 -2.1 -8.6 -5.1 -0.4 -1.6 -1.1 -2.9 -1.6 -2.9 -0.5 0 -0.9 -1.6 -0.9 -3.5 0 -3.3 0.2 -3.5 3.5 -3.5 2.4 0 3.5 0.5 3.5 1.5 0 0.8 0.5 1.5 1 1.5 0.6 0 1 0.7 1 1.6 0 0.9 1.4 2.1 3 2.7 1.7 0.6 3 1.5 3 1.9 0 0.4 1.1 0.8 2.5 0.8 1.4 0 2.5 0.5 2.5 1 0 0.6 1.1 1 2.5 1 1.4 0 2.5 0.5 2.5 1 0 0.6 1.1 1 2.5 1 1.4 0 2.5 0.5 2.5 1 0 0.6 1.1 1 2.5 1 2.2 0 2.5 0.4 2.5 3.5 0 3.3 -0.2 3.5 -3.5 3.5 -2 0 -3.5 -0.5 -3.5 -1.2 0 -0.6 -0.3 -0.8 -0.7 -0.4 -0.5 0.4 -0.8 3.3 -0.8 6.4 0 5.3 -0.2 5.7 -2.5 6 -2.3 0.3 -2.5 0.6 -2.2 4.2 0.4 4 0.4 4 -3.1 4 -2.3 0 -3.7 -0.6 -4.1 -1.6z"/>
  <path d="M575 912 c0 -1.6 0.8 -4.5 1.7 -6.5 1.4 -3 2.2 -3.5 5 -3.5 3 0 3.3 0.3 3.3 3 0 1.6 -0.8 4.5 -1.7 6.5 -1.4 3 -2.2 3.5 -5 3.5 -3 0 -3.3 -0.3 -3.3 -3z"/>
  <path d="M528 880.5 l0 -7.5 3.5 0 3.5 0 0 7.5 0 7.5 -3.5 0 -3.5 0 0 -7.5z"/>
  <path d="M577 882.5 c0 -3.3 0.2 -3.5 3.5 -3.5 3.3 0 3.5 0.2 3.5 3.5 0 3.3 -0.2 3.5 -3.5 3.5 -3.3 0 -3.5 -0.2 -3.5 -3.5z"/>
  <path d="M472 879.6 c0 -1.3 0.3 -3.8 0.6 -5.5 0.6 -2.7 1 -3.1 4 -3.1 3.7 0 4.1 1.2 2.8 7.9 -0.6 2.7 -1 3.1 -4 3.1 -2.9 0 -3.4 -0.3 -3.4 -2.4z"/>
  <path d="M572 876.5 c0 -0.8 -0.9 -1.5 -2 -1.5 -1.6 0 -2 -0.7 -2 -3.5 0 -3.3 0.2 -3.5 3.5 -3.5 2.4 0 3.5 0.5 3.5 1.5 0 0.8 0.9 1.5 2 1.5 1.6 0 2 0.7 2 3.5 0 3.3 -0.2 3.5 -3.5 3.5 -2.4 0 -3.5 -0.5 -3.5 -1.5z"/>
  <path d="M794 688 c0 -0.5 1.4 -4.6 3 -9.2 1.7 -4.5 2.7 -8.5 2.3 -8.9 -0.5 -0.3 -4.6 -3.2 -9.3 -6.3 l-8.5 -5.6 11.5 0 11.5 0 2.9 -8.5 c1.6 -4.7 3.2 -8.5 3.6 -8.5 0.4 0 2 3.8 3.6 8.5 l2.9 8.5 11.5 0 11.5 0 -8.5 5.6 c-4.7 3.1 -8.8 6 -9.3 6.3 -0.4 0.4 0.6 4.4 2.3 8.9 1.6 4.6 3 8.7 3 9.2 0 0.6 -3.8 -1.5 -8.5 -4.6 l-8.5 -5.7 -8.5 5.7 c-4.7 3.1 -8.5 5.2 -8.5 4.6z"/>
  <path d="M213 684.3 c0 -0.5 1.4 -4.4 3 -8.8 1.6 -4.4 3 -8.4 3 -8.8 0 -0.4 -4.2 -3.4 -9.2 -6.7 l-9.3 -6 11.7 0 11.6 0 3 -8.2 c4.1 -11.6 4 -11.4 4.1 -10.1 0.1 0.7 1.5 5 3.2 9.7 l3.1 8.6 11.6 0 11.7 0 -9.2 6 c-5.1 3.3 -9.3 6.3 -9.3 6.7 0 0.4 1.4 4.4 3 8.8 1.6 4.4 3 8.4 3 8.8 0 0.4 -3.4 -1.5 -7.5 -4.3 -4.1 -2.8 -8.2 -5.3 -9 -5.7 -1 -0.3 -5 1.7 -10 5.1 -4.7 3.1 -8.5 5.3 -8.5 4.9z"/>
  <path d="M842 496 c0 -0.5 1.4 -4.6 3 -9.2 1.7 -4.5 2.7 -8.5 2.3 -8.9 -0.5 -0.3 -4.6 -3.2 -9.3 -6.3 l-8.5 -5.6 11.5 0 11.5 0 2.9 -8.5 c1.6 -4.7 3.2 -8.5 3.6 -8.5 0.4 0 2 3.8 3.6 8.5 l2.9 8.5 11.5 0 11.5 0 -8.5 5.6 c-4.7 3.1 -8.8 6 -9.3 6.3 -0.4 0.4 0.6 4.4 2.3 8.9 1.6 4.6 3 8.7 3 9.2 0 0.6 -3.8 -1.5 -8.5 -4.6 l-8.5 -5.7 -8.5 5.7 c-4.7 3.1 -8.5 5.2 -8.5 4.6z"/>
  <path d="M162 495 c0 -0.5 1.4 -4.6 3 -9.2 1.7 -4.5 2.7 -8.5 2.3 -8.9 -0.5 -0.3 -4.6 -3.2 -9.3 -6.3 l-8.5 -5.6 11.5 0 11.5 0 2.9 -8.5 c1.6 -4.7 3.2 -8.5 3.6 -8.5 0.4 0 2 3.8 3.6 8.5 l2.9 8.5 11.5 0 11.5 0 -8.5 5.6 c-4.7 3.1 -8.8 6 -9.3 6.3 -0.4 0.4 0.6 4.4 2.3 8.9 1.6 4.6 3 8.7 3 9.2 0 0.6 -3.8 -1.5 -8.5 -4.6 l-8.5 -5.7 -8.5 5.7 c-4.7 3.1 -8.5 5.2 -8.5 4.6z"/>
  <path d="M782 329 c0 -0.5 1.4 -4.6 3 -9.2 1.7 -4.5 2.7 -8.5 2.3 -8.9 -0.5 -0.3 -4.6 -3.2 -9.3 -6.3 l-8.5 -5.6 11.5 0 11.5 0 2.9 -8.5 c1.6 -4.7 3.2 -8.5 3.6 -8.5 0.4 0 2 3.8 3.6 8.5 l2.9 8.5 11.5 0 11.5 0 -8.5 5.6 c-4.7 3.1 -8.8 6 -9.3 6.3 -0.4 0.4 0.6 4.4 2.3 8.9 1.6 4.6 3 8.7 3 9.2 0 0.6 -3.8 -1.5 -8.5 -4.6 l-8.5 -5.7 -8.5 5.7 c-4.7 3.1 -8.5 5.2 -8.5 4.6z"/>
  <path d="M240 319.3 c0 -0.5 1.4 -4.4 3 -8.8 1.6 -4.4 3 -8.4 3 -8.8 0 -0.4 -4.2 -3.4 -9.2 -6.7 l-9.3 -6 11.7 0 11.6 0 3 -8.2 c4.1 -11.6 4 -11.4 4.1 -10.1 0.1 0.7 1.5 5 3.2 9.7 l3.1 8.6 11.6 0 11.7 0 -9.2 6 c-5.1 3.3 -9.3 6.3 -9.3 6.7 0 0.4 1.4 4.4 3 8.8 1.6 4.4 3 8.4 3 8.8 0 0.4 -3.4 -1.5 -7.5 -4.3 -4.1 -2.8 -8.2 -5.3 -9 -5.7 -1 -0.3 -5 1.7 -10 5.1 -4.7 3.1 -8.5 5.3 -8.5 4.9z"/>
 </g>
 <g fill="#7f7f7f">
  <path d="M466.7 677 c-0.3 -1.1 -1.2 -2 -2.1 -2 -2.8 0 -20.7 -6.1 -31.6 -10.7 -11.7 -4.9 -29 -14.2 -29 -15.5 0 -0.9 5.1 -1.1 7.4 -0.2 0.9 0.3 1.6 1.2 1.6 2 0 0.8 0.9 1.4 2 1.4 2.9 0 15 6.2 15 7.7 0 0.8 1.3 1.3 3.5 1.3 1.9 0 3.5 0.5 3.5 1 0 0.6 0.7 1 1.6 1 2.4 0 11.4 3.3 11.4 4.2 0 0.5 0.8 0.8 1.8 0.8 0.9 0 5.4 1 9.9 2.2 8.2 2.3 8.3 2.3 8.3 5.6 0 3.6 -2.4 4.5 -3.3 1.2z"/>
  <path d="M588 673.7 c0 -3.1 0.4 -3.5 3.9 -4.5 2.1 -0.7 4.8 -1.2 6 -1.2 1.1 0 2.1 -0.3 2.1 -0.8 0 -0.9 9 -4.2 11.4 -4.2 0.9 0 1.6 -0.4 1.6 -1 0 -0.5 1.6 -1 3.5 -1 2.2 0 3.5 -0.5 3.5 -1.3 0 -1.5 12.1 -7.7 15 -7.7 1.1 0 2 -0.6 2 -1.4 0 -0.8 0.7 -1.7 1.6 -2 2.3 -0.9 7.4 -0.7 7.4 0.2 0 2.5 -31.4 17.4 -46.9 22.3 -4.9 1.6 -7.6 3 -7.9 4.1 -0.8 3.2 -3.2 2 -3.2 -1.5z"/>
  <path d="M435.4 656.6 c-12.7 -2.9 -25.5 -12 -31.7 -22.6 -3.4 -5.9 -5.7 -14.9 -5.7 -22.5 0 -5.5 -0.3 -6.3 -2.3 -7.2 -4.2 -1.9 -9 -6.7 -10.8 -10.8 -2.4 -5.3 -2.6 -18.3 -0.3 -23.1 4.1 -8.6 14.1 -13.2 26.1 -12.1 7.5 0.7 12.4 2.8 16.7 7.3 l3.2 3.3 9 -0.6 c11.1 -0.7 21.2 0.9 29.3 4.7 6.1 2.9 6.1 2.9 6.1 7.2 0 2.7 -0.8 5.6 -2.3 7.8 -2.1 3.4 -2.2 4.5 -2.7 35 l-0.5 31.5 -4 1.4 c-5.8 1.9 -22.7 2.3 -30.1 0.7z"/>
  <path d="M393.6 642.4 c-7.6 -5.3 -22.6 -17.3 -22.6 -18 0 -0.2 1.6 -0.4 3.5 -0.4 2.8 0 3.5 0.4 3.5 1.9 0 1.4 0.8 2.1 2.8 2.3 1.9 0.2 2.8 0.9 3 2.6 0.3 1.6 1 2.2 2.8 2.2 1.5 0 2.4 0.6 2.4 1.5 0 0.8 0.9 1.5 2 1.5 1.1 0 2 0.5 2 1 0 0.6 0.7 1 1.5 1 0.8 0 1.5 0.5 1.5 1 0 0.6 0.7 1 1.5 1 0.8 0 1.5 0.5 1.5 1 0 0.6 0.7 1 1.5 1 1 0 1.5 1 1.5 3 0 1.7 -0.1 3 -0.2 3 -0.2 -0.1 -3.9 -2.6 -8.2 -5.6z"/>
  <path d="M648 645 c0 -2 0.5 -3 1.5 -3 0.8 0 1.5 -0.4 1.5 -1 0 -0.5 0.7 -1 1.5 -1 0.8 0 1.5 -0.4 1.5 -1 0 -0.5 0.7 -1 1.5 -1 0.8 0 1.5 -0.4 1.5 -1 0 -0.5 0.9 -1 2 -1 1.1 0 2 -0.7 2 -1.5 0 -0.9 0.9 -1.5 2.4 -1.5 1.8 0 2.5 -0.6 2.8 -2.2 0.2 -1.7 1.1 -2.4 3.1 -2.6 1.9 -0.2 2.7 -0.9 2.7 -2.3 0 -1.5 0.7 -1.9 3.5 -1.9 1.9 0 3.5 0.2 3.5 0.4 0 0.7 -18.4 15.3 -24.7 19.5 l-6.3 4.2 0 -3.1z"/>
  <path d="M355.4 608.4 c-9 -10.5 -24.4 -33 -24.4 -35.6 0 -0.4 1.1 -0.8 2.4 -0.8 2.4 0 3.6 1.6 3.6 5.1 0 1 0.7 1.9 1.5 1.9 0.8 0 1.5 0.7 1.5 1.5 0 0.8 0.5 1.5 1 1.5 0.6 0 1 1.4 1 3 0 2.3 0.4 3 2 3 1.1 0 2 0.7 2 1.5 0 0.8 0.5 1.5 1 1.5 0.6 0 1 0.9 1 2 0 1.1 0.7 2 1.5 2 0.8 0 1.5 0.8 1.5 1.9 0 1 0.9 2.1 2 2.4 1.4 0.3 2 1.4 2 3.1 0 1.9 0.5 2.6 1.9 2.6 2.7 0 4.3 2.4 3.9 6.1 l-0.3 3.3 -5.1 -6z"/>
  <path d="M689 611 c0 -3.9 1.4 -6 4.2 -6 1.3 0 1.8 -0.8 1.8 -2.6 0 -1.7 0.6 -2.8 2 -3.1 1.1 -0.3 2 -1.4 2 -2.4 0 -1.1 0.7 -1.9 1.5 -1.9 0.8 0 1.5 -0.9 1.5 -2 0 -1.1 0.5 -2 1 -2 0.6 0 1 -0.7 1 -1.5 0 -0.8 0.9 -1.5 2 -1.5 1.6 0 2 -0.7 2 -3 0 -1.6 0.5 -3 1 -3 0.6 0 1 -0.7 1 -1.5 0 -0.8 0.7 -1.5 1.5 -1.5 0.8 0 1.5 -0.9 1.5 -1.9 0 -3.5 1.2 -5.1 3.6 -5.1 1.3 0 2.4 0.4 2.4 0.8 0 2.8 -17.7 28.3 -25.8 37.2 l-4.1 4.5 -0.1 -3.5z"/>
  <path d="M650 584.1 c-10.8 -3.5 -20 -11.5 -24.8 -21.9 -2.5 -5.3 -2.7 -6.7 -2.7 -19.2 0 -13.2 0.1 -13.6 3.3 -20.2 4.2 -8.7 12.8 -16.7 21.5 -20 5.3 -2 8 -2.3 18.5 -2.3 11.5 0 12.2 -0.1 12.2 -2 0.1 -3.8 3.8 -10.3 6.9 -11.9 3.4 -1.8 15.1 -2.2 18.1 -0.6 3.8 2 6 7.3 6 14.4 0 7.3 -1.5 11.3 -5.5 14.4 l-2.5 2 3.2 6.8 c2.7 5.8 3.2 8.1 3.6 17 0.4 8.5 0.1 11.4 -1.7 17.1 -3.8 12.2 -12.8 21.6 -24.8 25.9 -8.6 3 -22.8 3.3 -31.3 0.5z"/>
  <path d="M327.1 565.1 c-2 -3.6 -8.1 -19.4 -8.1 -20.7 0 -0.8 0.9 -1.4 2 -1.4 1.4 0 2 0.7 2 2.4 0 1.3 0.5 2.6 1.1 2.8 0.6 0.2 1.3 2.5 1.6 5.1 0.3 2.8 1.1 4.7 1.8 4.7 1.6 0 2.5 2.2 2.5 6.1 0 3.3 -1.4 3.8 -2.9 1z"/>
  <path d="M720 564.1 c0 -3.9 0.9 -6.1 2.5 -6.1 0.7 0 1.5 -1.9 1.8 -4.7 0.3 -2.6 1 -4.9 1.6 -5.1 0.6 -0.2 1.1 -1.5 1.1 -2.8 0 -1.7 0.6 -2.4 2 -2.4 1.1 0 2 0.6 2 1.4 0 1.3 -6.1 17.1 -8.1 20.7 -1.5 2.8 -2.9 2.3 -2.9 -1z"/>
  <path d="M315.1 531.3 c-1.8 -7.7 -4.1 -20.4 -4.1 -22.5 0 -0.5 0.9 -0.8 2 -0.8 1.5 0 2 0.7 2 2.8 0 1.5 1.1 7.6 2.5 13.7 2.9 12.6 3.1 15.5 1.1 15.5 -1 0 -2.1 -2.8 -3.5 -8.7z"/>
  <path d="M730 537.7 c0 -1.2 1.1 -7.2 2.5 -13.2 1.4 -6.1 2.5 -12.2 2.5 -13.7 0 -2.1 0.5 -2.8 2 -2.8 2.3 0 2.3 -0.4 0.9 8 -2 13.1 -5 24 -6.5 24 -0.8 0 -1.4 -1 -1.4 -2.3z"/>
  <path d="M504 518.6 c0 -1.9 0.6 -4.1 1.3 -4.8 0.6 -0.7 2.3 -3.7 3.7 -6.7 1.4 -3 3 -5.9 3.5 -6.5 0.6 -0.6 2.1 -3.5 3.5 -6.5 1.4 -3 3 -5.9 3.5 -6.5 0.6 -0.6 2.3 -3.9 3.9 -7.3 2.7 -5.8 3.2 -6.3 6.1 -6.3 2.9 0 3.4 0.5 6.1 6.3 1.6 3.4 3.4 6.7 3.9 7.3 0.6 0.6 2.1 3.5 3.5 6.5 1.4 3 2.9 5.9 3.5 6.5 0.5 0.6 2.1 3.5 3.5 6.5 1.4 3 3.1 6 3.7 6.7 0.7 0.7 1.3 2.9 1.3 4.8 0 3.2 -0.2 3.4 -3.4 3.4 -2.1 0 -3.6 -0.6 -4 -1.5 -0.4 -1 0.1 -1.5 1.5 -1.5 1.1 0 1.9 -0.4 1.7 -0.9 -1.9 -5.2 -21.5 -39.6 -21.9 -38.8 -0.4 0.7 -5.2 9.7 -10.8 20 -5.5 10.4 -10.1 19 -10.1 19.3 0 0.2 0.9 0.4 2 0.4 1.3 0 1.8 0.5 1.4 1.5 -0.4 0.9 -1.9 1.5 -4 1.5 -3.2 0 -3.4 -0.2 -3.4 -3.4z"/>
  <path d="M310.6 503.8 c-1.2 -4.5 -0.7 -6.8 1.4 -6.8 1.7 0 2 0.7 2 4.5 0 4.9 -2.3 6.4 -3.4 2.3z"/>
  <path d="M736 501.5 c0 -3.8 0.3 -4.5 2 -4.5 2.1 0 2.6 2.3 1.4 6.8 -1.1 4.1 -3.4 2.6 -3.4 -2.3z"/>
  <path d="M391.4 500 c-21.3 -5.5 -37.4 -21.7 -43.1 -43.3 -2.3 -8.4 -2.2 -27 0.1 -35.6 5.2 -20.1 19.9 -35.8 40.2 -43.3 4.7 -1.7 8.6 -2.2 19.8 -2.4 l13.9 -0.3 2.1 -4.2 c2.8 -5.6 10.4 -11.5 17.4 -13.5 8.2 -2.4 20.5 -1.5 27.8 2.1 6.9 3.4 12.8 10.5 15 18.3 2.2 7.6 1.5 19.9 -1.6 26.4 -2 4.3 -10 13 -12.8 13.9 -0.9 0.3 -0.9 1.3 -0.2 3.9 1.6 5.6 1.2 27.3 -0.6 34.3 -4 15.3 -16.5 31.4 -30.1 38.5 -13.5 7.1 -32.8 9.2 -47.9 5.2z"/>
  <path d="M310 479.8 c0 -3.9 1.2 -6.8 2.6 -6.8 1 0 1.4 1.3 1.4 4.5 0 3.8 -0.3 4.5 -2 4.5 -1.4 0 -2 -0.7 -2 -2.2z"/>
  <path d="M736 477.5 c0 -4.9 2.3 -6.4 3.4 -2.2 1.2 4.4 0.7 6.7 -1.4 6.7 -1.7 0 -2 -0.7 -2 -4.5z"/>
  <path d="M311 470.3 c0 -2.2 2.3 -14.9 4.1 -22.5 1.4 -6 2.5 -8.8 3.5 -8.8 2 0 1.8 2.9 -1.1 15.5 -1.4 6.1 -2.5 12.2 -2.5 13.8 0 2 -0.5 2.7 -2 2.7 -1.1 0 -2 -0.3 -2 -0.7z"/>
  <path d="M735 468.3 c0 -1.6 -1.1 -7.7 -2.5 -13.8 -2.9 -12.6 -3.1 -15.5 -1.1 -15.5 1.5 0 4.5 10.9 6.5 24 1.4 8.4 1.4 8 -0.9 8 -1.5 0 -2 -0.7 -2 -2.7z"/>
  <path d="M319 434.6 c0 -1.3 6.1 -17.1 8.1 -20.7 1.5 -2.8 2.9 -2.3 2.9 1 0 3.9 -0.9 6.1 -2.5 6.1 -0.7 0 -1.5 1.9 -1.8 4.7 -0.3 2.6 -1 4.9 -1.6 5.1 -0.6 0.2 -1.1 1.5 -1.1 2.8 0 1.7 -0.6 2.4 -2 2.4 -1.1 0 -2 -0.6 -2 -1.4z"/>
  <path d="M727 433.6 c0 -1.3 -0.5 -2.6 -1.1 -2.8 -0.6 -0.2 -1.3 -2.5 -1.6 -5.1 -0.3 -2.8 -1.1 -4.7 -1.8 -4.7 -1.6 0 -2.5 -2.2 -2.5 -6.1 0 -3.3 1.4 -3.8 2.9 -1 2 3.6 8.1 19.4 8.1 20.7 0 0.8 -0.9 1.4 -2 1.4 -1.4 0 -2 -0.7 -2 -2.4z"/>
  <path d="M620.2 432.5 c-10.2 -2.9 -18.7 -11.2 -21.3 -20.9 -1.8 -6.5 -0.7 -21.3 1.9 -26.3 3.4 -6.6 7.8 -11 14 -14 5.1 -2.5 6.8 -2.8 15.7 -2.8 11.3 0 16.2 1.7 22.8 7.5 5.7 5 8.5 10.6 9.7 19.3 2.4 16.7 -4.1 29.9 -17.5 35.8 -5.8 2.6 -18.6 3.3 -25.3 1.4z"/>
  <path d="M331 406.2 c0 -2.8 17.7 -28.3 25.8 -37.2 l4.1 -4.5 0.1 3.6 c0 3.8 -1.4 5.9 -4.2 5.9 -1.3 0 -1.8 0.8 -1.8 2.6 0 1.7 -0.6 2.8 -2 3.1 -1.1 0.3 -2 1.4 -2 2.4 0 1.1 -0.7 1.9 -1.5 1.9 -0.8 0 -1.5 0.9 -1.5 2 0 1.1 -0.4 2 -1 2 -0.5 0 -1 0.7 -1 1.5 0 0.8 -0.9 1.5 -2 1.5 -1.6 0 -2 0.7 -2 3 0 1.7 -0.4 3 -1 3 -0.5 0 -1 0.7 -1 1.5 0 0.8 -0.7 1.5 -1.5 1.5 -0.8 0 -1.5 0.9 -1.5 1.9 0 3.5 -1.2 5.1 -3.6 5.1 -1.3 0 -2.4 -0.4 -2.4 -0.8z"/>
  <path d="M713.6 405.4 c-0.3 -0.9 -0.6 -2.4 -0.6 -3.5 0 -1 -0.7 -1.9 -1.5 -1.9 -0.8 0 -1.5 -0.7 -1.5 -1.5 0 -0.8 -0.4 -1.5 -1 -1.5 -0.5 0 -1 -1.3 -1 -3 0 -2.3 -0.4 -3 -2 -3 -1.1 0 -2 -0.7 -2 -1.5 0 -0.8 -0.4 -1.5 -1 -1.5 -0.5 0 -1 -0.9 -1 -2 0 -1.1 -0.7 -2 -1.5 -2 -0.8 0 -1.5 -0.8 -1.5 -1.9 0 -1 -0.9 -2.1 -2 -2.4 -1.4 -0.3 -2 -1.4 -2 -3.1 0 -1.8 -0.5 -2.6 -1.8 -2.6 -2.8 0 -4.2 -2.1 -4.2 -5.9 l0.1 -3.6 4.1 4.5 c8.1 8.9 25.8 34.4 25.8 37.2 0 1.5 -4.8 0.8 -5.4 -0.8z"/>
  <path d="M371 354.6 c0 -0.7 18.4 -15.3 24.8 -19.5 l6.2 -4.2 0 3.1 c0 2 -0.5 3 -1.5 3 -0.8 0 -1.5 0.5 -1.5 1 0 0.6 -0.7 1 -1.5 1 -0.8 0 -1.5 0.5 -1.5 1 0 0.6 -0.7 1 -1.5 1 -0.8 0 -1.5 0.5 -1.5 1 0 0.6 -0.9 1 -2 1 -1.1 0 -2 0.7 -2 1.5 0 0.9 -0.9 1.5 -2.4 1.5 -1.8 0 -2.5 0.6 -2.8 2.3 -0.2 1.6 -1.1 2.3 -3 2.5 -2 0.2 -2.8 0.9 -2.8 2.3 0 1.5 -0.7 1.9 -3.5 1.9 -1.9 0 -3.5 -0.2 -3.5 -0.4z"/>
  <path d="M672 353.1 c0 -1.4 -0.8 -2.1 -2.7 -2.3 -2 -0.2 -2.9 -0.9 -3.1 -2.5 -0.3 -1.7 -1 -2.3 -2.8 -2.3 -1.5 0 -2.4 -0.6 -2.4 -1.5 0 -0.8 -0.9 -1.5 -2 -1.5 -1.1 0 -2 -0.4 -2 -1 0 -0.5 -0.7 -1 -1.5 -1 -0.8 0 -1.5 -0.4 -1.5 -1 0 -0.5 -0.7 -1 -1.5 -1 -0.8 0 -1.5 -0.4 -1.5 -1 0 -0.5 -0.7 -1 -1.5 -1 -1 0 -1.5 -1 -1.5 -3 l0 -3.1 6.3 4.2 c6.3 4.2 24.7 18.8 24.7 19.5 0 0.2 -1.6 0.4 -3.5 0.4 -2.8 0 -3.5 -0.4 -3.5 -1.9z"/>
  <path d="M404 330.2 c0 -1.2 16.8 -10.3 27 -14.8 20.6 -8.8 44.7 -15.3 66.3 -17.9 5.3 -0.6 5.7 -0.5 5.7 1.4 0 1.7 -0.6 2.1 -2.9 2.1 -1.6 0 -9.1 1.1 -16.5 2.5 -7.4 1.4 -14.4 2.5 -15.5 2.5 -1.1 0 -2.1 0.3 -2.3 0.8 -0.4 1 -10.8 4.2 -13.6 4.2 -1.2 0 -2.2 0.3 -2.2 0.8 0 0.9 -9 4.2 -11.4 4.2 -0.9 0 -1.6 0.5 -1.6 1 0 0.6 -1.6 1 -3.5 1 -2.2 0 -3.5 0.5 -3.5 1.3 0 1.5 -12.1 7.7 -15 7.7 -1.1 0 -2 0.6 -2 1.4 0 0.8 -0.7 1.7 -1.6 2 -2.3 0.9 -7.4 0.7 -7.4 -0.2z"/>
  <path d="M638.3 330.3 c-0.7 -0.2 -1.3 -1.1 -1.3 -1.9 0 -0.8 -0.9 -1.4 -2 -1.4 -2.9 0 -15 -6.2 -15 -7.7 0 -0.8 -1.3 -1.3 -3.5 -1.3 -1.9 0 -3.5 -0.4 -3.5 -1 0 -0.5 -0.7 -1 -1.6 -1 -2.4 0 -11.4 -3.3 -11.4 -4.2 0 -0.5 -1 -0.8 -2.2 -0.8 -2.8 0 -13.2 -3.2 -13.6 -4.2 -0.2 -0.5 -1.2 -0.8 -2.3 -0.8 -1.1 0 -8.1 -1.1 -15.5 -2.5 -7.4 -1.4 -14.9 -2.5 -16.5 -2.5 -2.3 0 -2.9 -0.4 -2.9 -2.1 0 -1.9 0.4 -2 5.8 -1.4 21.5 2.6 45.6 9.1 66.2 17.9 10.2 4.5 27 13.6 27 14.8 0 0.9 -5.7 1 -7.7 0.1z"/>
  <path d="M507 298.6 c0 -1.4 2.9 -2.6 6.8 -2.6 1.5 0 2.2 0.6 2.2 2 0 1.7 -0.7 2 -4.5 2 -3.2 0 -4.5 -0.4 -4.5 -1.4z"/>
  <path d="M534 298 c0 -2.1 2.3 -2.6 6.8 -1.4 4.1 1.1 2.6 3.4 -2.3 3.4 -3.8 0 -4.5 -0.3 -4.5 -2z"/>
 </g>
 <g fill="#f35935">
  <path d="M526.6 950 c-10.9 -19.8 -20.1 -36 -20.4 -36 -0.3 0 -4 3.2 -8.3 7 -4.2 3.9 -8.1 7 -8.6 7 -0.4 0 -5.2 -10.3 -10.6 -22.9 l-9.9 -23 1.2 -5.7 c1.4 -6.7 2.9 -10.4 4.3 -10.4 0.5 0 0.4 -0.7 -0.3 -1.5 -1.1 -1.3 -0.8 -1.5 1.6 -1.5 7.8 0.1 9.2 2.7 5.4 10.5 -1.1 2.3 -2.1 5.2 -2.2 6.6 -0.2 1.9 11.4 34.1 12.8 35.8 0.3 0.4 21.6 -19.7 22.2 -20.9 0.1 -0.3 -3.6 -1.9 -8.3 -3.5 -7.8 -2.7 -8.8 -3.3 -11 -7.1 -1.5 -2.6 -2.5 -5.8 -2.5 -8.2 0 -6.5 0.6 -7.2 6.1 -7.2 4.7 0 4.9 0.1 4.9 2.8 0 5.4 3.1 8.2 14 12.4 5.6 2.2 10.3 3.8 10.6 3.6 0.2 -0.3 0.7 -3.9 1 -8.1 l0.7 -7.7 4.4 0 4.4 0 -0.6 11.8 c-0.9 16.3 -0.8 16.2 -5.1 16.2 -2.8 0 -4.7 1 -8.9 4.6 l-5.4 4.6 14.2 28.3 14.1 28.4 15.8 -31.2 15.8 -31.2 0 -9.1 c0 -8.2 -0.3 -9.5 -2.6 -12.9 -3.6 -5.4 -6.4 -7.4 -10.1 -7.5 -3.1 0 -3.3 -0.2 -3.3 -3.4 0 -3.1 0.3 -3.4 3.8 -4 9.9 -1.6 13.2 -1.8 13.2 -0.8 0 0.6 -0.5 1.2 -1.1 1.4 -0.6 0.2 0.7 1.6 2.9 3 2.2 1.5 5 4.4 6.3 6.5 2.1 3.4 2.4 5.2 2.7 17.6 0.3 8.3 0 14.2 -0.6 15 -0.5 0.6 -10.3 18.1 -21.7 38.7 -11.4 20.6 -20.8 37.6 -20.9 37.7 -0.1 0.1 -9.1 -16 -20 -35.7z m-31 -31.2 l2.9 -3.3 -3.2 2.9 c-3.1 2.8 -3.8 3.6 -3 3.6 0.2 0 1.6 -1.5 3.3 -3.2z m21 -20 l2.9 -3.3 -3.2 2.9 c-3.1 2.8 -3.8 3.6 -3 3.6 0.2 0 1.6 -1.5 3.3 -3.2z m15.1 -20.5 c-0.2 -1.6 -0.4 -0.5 -0.4 2.2 0 2.8 0.2 4 0.4 2.8 0.2 -1.3 0.2 -3.5 0 -5z"/>
 </g>
 <g fill="#e8c020">
  <path d="M545.7 973 c-0.3 -1.2 0 -2 0.8 -2 0.8 0 1.1 0.8 0.8 2 -0.3 1.1 -0.7 2 -0.8 2 -0.1 0 -0.5 -0.9 -0.8 -2z"/>
  <path d="M524.1 930.1 l-11.1 -22 3.8 -3.1 3.7 -3.1 0.3 2.6 c0.2 1.5 -0.2 3.2 -0.8 4 -0.8 1 1 5.4 8 19.4 8.3 16.6 10.8 24.1 8 24.1 -0.5 0 -5.9 -9.9 -11.9 -21.9z"/>
  <path d="M556 949 c0 -1.8 3.8 -10.5 9.2 -21.5 7.9 -15.8 9.6 -18.5 11.5 -18.5 1.3 0 2.3 0.2 2.3 0.5 0 1.6 -21.2 42.5 -22 42.5 -0.6 0 -1 -1.3 -1 -3z"/>
  <path d="M487.5 915.8 c-1.5 -4 -5.1 -13.3 -8 -20.6 -5.2 -13.2 -5.2 -13.3 -3.8 -18 0.8 -2.6 2 -5.9 2.8 -7.4 1.2 -2.4 1.2 -2.8 0 -2.8 -0.8 0 -1.7 -0.4 -2 -1 -0.4 -0.6 1.2 -1 3.9 -1 4.6 0 4.6 0 4.6 3.4 0 2.5 -0.5 3.5 -1.9 3.9 -3 0.8 -4.4 7.4 -2.9 13.4 0.7 2.6 1.5 5 1.9 5.3 1 0.9 3.9 9 3.9 11 0 1.1 0.4 2 1 2 0.5 0 1.3 1.8 1.6 4 0.4 2.2 1 4 1.4 4 0.4 0 1.3 1.8 2 4 1.2 3.6 1.1 4.3 -0.2 5.6 -1.4 1.4 -1.8 0.9 -4.3 -5.8z"/>
  <path d="M495 915.3 c0 -4.3 6.5 -10.3 11 -10.3 l3.4 0 -4.4 4.6 c-2.5 2.5 -5.7 5.5 -7.2 6.5 l-2.8 2 0 -2.8z"/>
  <path d="M515.4 895.6 c-0.9 -3.8 -0.2 -4.4 3.5 -3.1 l3.4 1.1 -3.1 2.3 -3.1 2.2 -0.7 -2.5z"/>
  <path d="M516.9 888.2 c-13 -5.2 -13.7 -5.6 -15.9 -9.7 -1.3 -2.3 -2 -4.7 -1.6 -5.4 1.2 -1.9 3.5 -1.2 4.2 1.4 0.3 1.4 1 2.5 1.5 2.5 0.5 0 0.9 0.6 0.9 1.3 0 0.7 2.9 2.3 6.5 3.5 3.6 1.3 6.5 2.8 6.5 3.3 0 0.5 1.1 0.9 2.5 0.9 1.4 0 2.5 0.5 2.5 1 0 0.6 0.9 1 2.1 1 2.4 0 5.2 2.5 4.7 4.3 -0.2 1 -4.1 -0.2 -13.9 -4.1z"/>
  <path d="M576.2 884 c-0.6 -2.2 -1.2 -4.9 -1.2 -6 0 -1.6 -0.7 -2 -3 -2 -1.6 0 -3 -0.4 -3 -1 0 -0.5 -1.1 -1 -2.5 -1 -2.2 0 -2.5 -0.4 -2.5 -3.5 0 -3.5 0 -3.5 4.5 -3.5 4.5 0 6 1.2 2.9 2.4 -1.4 0.5 -0.9 1.4 2.6 4.3 6.1 5.3 9.4 14.3 5.2 14.3 -1.1 0 -2.1 -1.3 -3 -4z"/>
  <path d="M528 875.5 c0 -3.3 0.2 -3.5 3.5 -3.5 3.9 0 5 2.4 1.5 3.3 -1.1 0.3 -2 1.2 -2 2.1 0 0.9 -0.7 1.6 -1.5 1.6 -1 0 -1.5 -1.1 -1.5 -3.5z"/>
  <path d="M467 732.5 c0 -50.4 -0.2 -57.5 -1.5 -57.5 -1.2 0 -1.5 -1.9 -1.5 -11.4 0 -9.2 0.3 -11.5 1.5 -12 1.3 -0.5 1.5 -4.3 1.5 -26.1 0 -28.3 0 -28.3 6.2 -22.1 6.3 6.3 14.4 6.5 21.3 0.5 2.6 -2.3 4.2 -3 6.7 -2.7 3.1 0.3 3.3 0.5 3.3 4.1 -0.1 2 -0.2 44.4 -0.3 94.2 l-0.2 90.5 -18.5 0 -18.5 0 0 -57.5z"/>
  <path d="M553 699.5 c0 -59.7 -0.3 -90.5 -1 -90.5 -1.7 0 -1.2 -6.7 0.6 -7.4 3.4 -1.3 7.1 -0.5 9.4 1.9 1.3 1.4 4.5 3.2 7.2 4 4.2 1.2 5.4 1.2 9.6 0 2.7 -0.8 5.7 -2.4 6.7 -3.5 1.1 -1.2 3.1 -2 5.2 -2 l3.3 0 0 35.5 c0 30.9 -0.2 35.5 -1.5 35.5 -1.3 0 -1.5 7.2 -1.5 58.5 l0 58.5 -19 0 -19 0 0 -90.5z"/>
  <path d="M514.3 614.3 c-3 -0.4 -3.3 -0.7 -3.3 -4 l0 -3.6 5.3 0.7 c2.8 0.3 6 0.6 7 0.6 1.3 0 1.7 0.8 1.7 3.5 0 3.4 -0.1 3.5 -3.7 3.3 -2.1 0 -5.3 -0.3 -7 -0.5z"/>
  <path d="M531 611.6 c0 -3.3 0.1 -3.3 5.3 -4 8.6 -1 8.7 -1 8.7 2.8 0 3.2 -0.2 3.4 -4.6 4 -8.8 1.2 -9.4 1 -9.4 -2.8z"/>
 </g>
 <g fill="#ef5d82">
  <path d="M506.9 877 c-6.5 -0.8 -8.2 -1.7 -7.5 -3.6 0.8 -2 -2.4 -1.8 -3.9 0.2 -1.1 1.6 -1.7 1.5 -8.8 0 -7.5 -1.7 -9.7 -2.9 -7.7 -4.1 1.4 -0.9 1.2 -2.5 -0.3 -2.5 -2.5 0 -9.5 -6.1 -10.6 -9.2 -0.7 -1.8 -1.1 -11.2 -1.1 -22.9 l0 -19.9 62 0 62 0 0 20 c0 24.3 -0.3 25.3 -8.6 29.7 -3.2 1.7 -7.6 3.6 -9.7 4.3 -3.3 1 -3.6 1.4 -2.2 2.4 1.4 1 0.9 1.4 -3.2 2.4 -5.7 1.4 -15.1 2.8 -25 3.7 -6.3 0.6 -7.3 0.5 -7.3 -0.9 0 -0.9 -0.8 -1.6 -2 -1.6 -1.1 0 -2 0.7 -2 1.5 0 1.2 -1.6 1.5 -9.2 1.4 -5.1 -0.1 -11.8 -0.5 -14.9 -0.9z"/>
 </g>
 <g fill="#fede0f">
  <path d="M542.2 965.5 c-2.3 -4.7 -4.2 -8.7 -4.2 -9 0 -0.3 1 -0.5 2.3 -0.5 1.7 0 2.8 1.1 4.3 4.1 l2 4.1 1.8 -4.1 c1.5 -3.1 2.5 -4.1 4.3 -4.1 1.2 0 2.3 0.3 2.2 0.8 0 0.4 -1.9 4.4 -4.2 9 l-4.2 8.2 -4.3 -8.5z"/>
  <path d="M489.6 920.2 c-0.2 -0.4 -1.4 -3.1 -2.5 -6 l-2.1 -5.2 2.5 0 c2 0 2.5 0.5 2.5 2.5 0 1.4 0.5 2.5 1 2.5 0.6 0 1 1.6 1 3.5 0 3.2 -1.2 4.6 -2.4 2.7z"/>
  <path d="M515.2 912 c-1.7 -2.8 -1.5 -4.3 0.8 -5.8 1.9 -1.1 2 -1 2 3.3 0 4.9 -0.8 5.6 -2.8 2.5z"/>
  <path d="M575 911.1 c0 -4.5 1 -6.1 3.6 -6.1 2.9 0 2.9 0.3 0.2 5.1 -2.6 4.6 -3.8 5 -3.8 1z"/>
  <path d="M503 907.3 c0 -3.8 1.6 -5.3 5.9 -5.3 3.4 0 3.4 0 1.5 2.1 -1 1.2 -3.1 3 -4.6 4.1 l-2.8 1.9 0 -2.8z"/>
  <path d="M484.6 907.1 c-0.3 -0.4 -1 -2 -1.5 -3.5 -1 -2.4 -0.8 -2.6 1.4 -2.6 2.2 0 2.5 0.4 2.5 3.5 0 3.3 -1.2 4.6 -2.4 2.6z"/>
  <path d="M479.6 894.1 c-0.3 -0.4 -1 -2 -1.5 -3.5 -1 -2.4 -0.8 -2.6 1.4 -2.6 2.2 0 2.5 0.4 2.5 3.5 0 3.3 -1.2 4.6 -2.4 2.6z"/>
  <path d="M512 892.5 c0 -2.9 0.2 -3 4 -1 4 2.1 3.8 3.5 -0.5 3.5 -3.1 0 -3.5 -0.3 -3.5 -2.5z"/>
  <path d="M522.1 890.1 c-7.6 -3.1 -8.9 -5.1 -3.7 -5.1 2 0 3.6 0.5 3.6 1 0 0.6 1.1 1 2.5 1 1.4 0 2.5 0.5 2.5 1 0 0.6 0.9 1 2 1 1.3 0 2 0.7 2 2 0 2.5 -1.1 2.4 -8.9 -0.9z"/>
  <path d="M577 885.5 c0 -4 2.4 -4.9 3.4 -1.2 1 3.7 0.7 4.7 -1.4 4.7 -1.6 0 -2 -0.7 -2 -3.5z"/>
  <path d="M475 882.8 c0 -3 1.3 -5.8 2.6 -5.8 0.9 0 1.4 1.2 1.4 3.5 0 2.8 -0.4 3.5 -2 3.5 -1.1 0 -2 -0.6 -2 -1.2z"/>
  <path d="M504.9 883.3 c-1 -0.2 -1.9 -1.3 -2.2 -2.4 -0.4 -1.5 0 -1.9 1.9 -1.9 1.9 0 2.4 0.5 2.4 2.5 0 1.4 -0.1 2.4 -0.2 2.4 -0.2 -0.1 -1 -0.3 -1.9 -0.6z"/>
  <path d="M574 879 c0 -1.3 -0.7 -2 -2 -2 -1.6 0 -2 -0.7 -2 -3.1 l0 -3 3 2.1 c3 2.1 6 5.8 6 7.2 0 0.5 -1.1 0.8 -2.5 0.8 -1.8 0 -2.5 -0.5 -2.5 -2z"/>
  <path d="M500 876.1 c-1.4 -2.7 -1.3 -3.1 1 -3.1 1.5 0 2 0.7 2 2.5 0 3 -1.5 3.3 -3 0.6z"/>
  <path d="M560 873.5 c0 -0.8 0.1 -1.5 0.3 -1.5 0.1 0 1.7 -0.4 3.5 -0.9 3 -0.9 3.2 -0.8 3.2 1.5 0 2.1 -0.5 2.4 -3.5 2.4 -2.4 0 -3.5 -0.5 -3.5 -1.5z"/>
  <path d="M498 788.5 c0 -0.8 0.7 -1.5 1.5 -1.5 1.3 0 1.5 -11.2 1.7 -91.1 0.2 -50.1 0.1 -91.3 -0.1 -91.5 -0.2 -0.2 -1 0.1 -1.8 0.7 -1 0.9 -1.3 0.8 -1.3 -0.5 0 -2.3 5.6 -2.1 11.2 0.4 7.4 3.2 17.7 4.5 25.9 3.1 7.5 -1.2 16.9 -4.7 16.9 -6.2 0 -0.5 1.6 -0.9 3.5 -0.9 3.1 0 3.5 0.3 3.5 2.6 0 2.2 -0.2 2.5 -1.5 1.4 -1.3 -1.1 -1.5 9 -1.5 90.4 0 80.8 0.2 91.6 1.5 91.6 0.8 0 1.5 0.7 1.5 1.5 0 1.3 -4.1 1.5 -30.5 1.5 -26.4 0 -30.5 -0.2 -30.5 -1.5z"/>
 </g>
 <g fill="#f6ef2c">
  <path d="M530.1 941.1 l-16.3 -32.3 5 -5 5 -5 6.3 9.8 c3.5 5.4 8.7 13.3 11.4 17.6 l5 7.7 13.3 -20.5 c11.9 -18.4 13.2 -20.9 13.2 -24.9 0 -3.5 -0.6 -5.1 -3 -7.8 -1.6 -1.9 -4.4 -4 -6 -4.7 -3.2 -1.3 -3.8 -4.1 -1 -4.6 0.8 -0.2 2.5 -0.5 3.6 -0.8 2.8 -0.6 8.8 3.7 11.6 8.3 1.8 2.8 2.3 5.4 2.6 14.6 l0.4 11.2 -10.7 21.4 c-5.9 11.8 -13.8 27.3 -17.4 34.4 l-6.7 13 -16.3 -32.4z"/>
  <path d="M482.8 902.6 l-7.7 -20.1 1.3 -5.7 c1.6 -6.9 3 -8.8 5.7 -8.1 1.8 0.5 2 1.2 1.6 4.4 -0.4 3.3 0.4 5.6 5.5 15.4 l5.9 11.5 7.4 -5.6 7.3 -5.5 4.4 1.9 c2.4 1.1 4.9 2.1 5.6 2.3 0.7 0.3 -5.5 6.9 -14 15 l-15.3 14.6 -7.7 -20.1z"/>
  <path d="M516.7 887.7 c-10.1 -4.1 -13.2 -5.8 -14.7 -8.2 -2.8 -4.2 -2.6 -6.5 0.5 -6.5 1.3 0 2.8 0.6 3.2 1.3 0.4 0.7 4.3 2.3 8.6 3.4 l7.7 2.1 0 -2.4 c0 -2.2 0.4 -2.4 4.5 -2.4 l4.5 0 0 9 c0 5 -0.3 9 -0.7 9 -0.5 -0.1 -6.6 -2.4 -13.6 -5.3z"/>
 </g>
 <g fill="#bfbfbf">
  <path d="M502 875 c0 -2.1 1 -2.4 4.8 -1.4 3.6 1 2.7 3.4 -1.3 3.4 -2.8 0 -3.5 -0.4 -3.5 -2z"/>
  <path d="M553 874.6 c0 -1.3 2.8 -2.6 5.8 -2.6 0.6 0 1.2 0.9 1.2 2 0 1.6 -0.7 2 -3.5 2 -2.3 0 -3.5 -0.5 -3.5 -1.4z"/>
  <path d="M456 672.6 c-51.1 -15.8 -94.5 -48.9 -120.5 -92.1 -18.5 -30.7 -27.8 -69.9 -24.7 -104.5 5.2 -58.2 34.9 -106.7 87.2 -142.1 31.2 -21.2 69.6 -33.9 111.7 -37.1 49 -3.7 102.9 10.4 142.3 37.1 52.3 35.4 82 83.9 87.2 142.1 3.1 34.6 -6.2 73.8 -24.7 104.5 -25.2 41.7 -67 74.5 -115.5 90.4 -3.5 1.2 -6.7 2.1 -7.2 2.1 -0.4 0 -0.8 -15.4 -0.8 -34.1 0 -31 -0.1 -34 -1.6 -32.8 -1.4 1.1 -1.5 0.6 -0.9 -5.7 l0.7 -6.9 -20.6 -37 c-17.5 -31.4 -20.3 -37.1 -18.8 -37.5 1.6 -0.4 0.3 -3.3 -9.2 -21.1 l-11.1 -20.6 -11.1 20.6 c-9.5 17.7 -10.8 20.7 -9.2 21.1 1.5 0.4 -0.9 5.4 -16 32.7 -12.6 23 -18.2 32.2 -19.4 32.3 -1.3 0 -1.8 0.8 -1.8 2.9 0 4.2 -1 6.1 -3.1 6.1 -2.6 0 -2.4 -2.6 0.6 -7.5 1.4 -2.2 2.5 -4.6 2.5 -5.3 0 -2.1 -11.9 -7.1 -20.2 -8.4 -7.2 -1.1 -16.5 -0.4 -22 1.7 -0.7 0.3 -2.2 -0.9 -3.3 -2.5 -4.7 -7.1 -15.6 -11.1 -24.4 -9 -5.7 1.4 -12.1 6.4 -14.5 11.4 -2.1 4.5 -2 12.1 0.3 17.2 2 4.3 8.2 10.1 11.8 11 2.1 0.6 2.2 1 1.7 6.3 -0.8 6.8 1.5 16.5 5.3 23.1 10.8 18.4 36.7 28.4 56.3 21.6 l4 -1.4 0 11.9 c0 13.8 0.8 13.1 -11 9.5z m222.3 -92 c26 -9.2 34.9 -40.9 17.6 -62.7 l-3.1 -3.9 2.5 0 c5.2 0 10.7 -6.9 10.7 -13.6 0 -4 -3.1 -9.8 -6 -11.4 -2.8 -1.5 -8.7 -1.2 -12.1 0.6 -4 2 -7.3 9.3 -6.4 14 l0.6 3.4 -4.3 -1.7 c-6.6 -2.7 -19.6 -2.4 -27.5 0.5 -8.7 3.3 -17.3 11.3 -21.5 20 -3.1 6.3 -3.3 7.4 -3.3 17.2 0 9.3 0.3 11.2 2.7 16.2 9 19.2 30.4 28.3 50.1 21.4z m-255.9 -83.6 c11.2 -2.8 19 -7.3 27.7 -16 8.4 -8.2 13.6 -17.1 16.3 -27.7 2.1 -7.9 2.1 -22.8 0 -30.6 -1.5 -5.8 -1.5 -6.2 0.2 -7.2 1 -0.5 3.9 -2.9 6.5 -5.3 18.8 -17.2 8.5 -47.8 -17.2 -50.8 -11.6 -1.3 -24.1 5.4 -28.9 15.5 -2.4 5 -2.5 5.1 -6 4.4 -7 -1.6 -23.1 -0.7 -29.4 1.6 -10.2 3.6 -17.9 8.6 -25.2 16.3 -22.8 24.1 -22.4 61 1 84.4 14.8 14.8 35.2 20.5 55 15.4z m221.3 -69.6 c9.9 -4.7 16.5 -14.9 16.4 -25.4 0 -11.5 -4.2 -19.5 -13.4 -25.7 -18.5 -12.4 -43.7 -0.2 -45.4 22.2 -0.6 7.4 0.7 12.7 4.8 18.8 8.1 12.2 24 16.5 37.6 10.1z"/>
 </g>
 <g fill="#fbd19f">
  <path d="M545.6 940.5 c-0.9 -2.3 -0.8 -2.5 0.9 -2.5 1.7 0 1.9 0.9 0.6 2.8 -0.7 1.1 -1 1 -1.5 -0.3z"/>
  <path d="M536.8 926.6 c-3.4 -5.3 -3.4 -5.6 -0.3 -5.6 1.6 0 2.5 0.6 2.5 1.5 0 0.8 0.5 1.5 1 1.5 0.6 0 1 1.6 1 3.5 0 1.9 -0.3 3.5 -0.7 3.5 -0.5 0 -2 -2 -3.5 -4.4z"/>
  <path d="M552 927.5 c0 -1.9 0.5 -3.5 1 -3.5 0.6 0 1 -0.7 1 -1.5 0 -0.9 0.9 -1.5 2.5 -1.5 1.4 0 2.5 0.3 2.5 0.6 0 1.2 -5.5 9.4 -6.2 9.4 -0.5 0 -0.8 -1.6 -0.8 -3.5z"/>
  <path d="M525.8 909.6 c-3.4 -5.3 -3.4 -5.6 -0.3 -5.6 1.6 0 2.5 0.6 2.5 1.5 0 0.8 0.5 1.5 1 1.5 0.6 0 1 1.6 1 3.5 0 1.9 -0.3 3.5 -0.7 3.5 -0.5 0 -2 -2 -3.5 -4.4z"/>
  <path d="M563 910.5 c0 -1.9 0.5 -3.5 1 -3.5 0.6 0 1 -0.7 1 -1.5 0 -0.9 0.9 -1.5 2.5 -1.5 1.4 0 2.5 0.3 2.5 0.6 0 1.2 -5.5 9.4 -6.2 9.4 -0.5 0 -0.8 -1.6 -0.8 -3.5z"/>
  <path d="M493.2 904.7 c-1.1 -1.4 -4.2 -7.4 -4.2 -8.2 0 -0.3 1.1 -0.5 2.3 -0.5 2.5 0 4.7 3.3 4.7 7 0 2.4 -1.5 3.3 -2.8 1.7z"/>
  <path d="M523.5 899.1 c2.5 -2.7 3.5 -3.1 6.2 -2.6 2.9 0.5 3.3 0.3 3.9 -2 1.1 -4.4 3.4 -3 3.4 2 0 4.2 -0.2 4.5 -2.7 4.5 -1.6 0 -5.3 0.3 -8.3 0.6 l-5.5 0.7 3 -3.2z"/>
  <path d="M503.3 891.1 c-5.3 -1.9 -7.3 -3.1 -7.3 -4.3 0 -1 -0.4 -1.8 -1 -1.8 -0.5 0 -1 -0.7 -1 -1.5 0 -0.8 -0.4 -1.5 -1 -1.5 -0.5 0 -1 -2.5 -1 -5.6 0 -4.7 0.3 -5.5 1.6 -5 0.9 0.3 1.8 0.6 2 0.6 0.2 0 0.2 1.1 -0.2 2.4 -0.4 1.7 0.2 3.8 2 6.7 2.2 3.7 3.4 4.6 9.6 6.9 6.6 2.4 7 2.7 5.3 4.2 -1.7 1.4 -2.4 1.3 -9 -1.1z"/>
  <path d="M534 883.8 c0 -4.8 1 -7.8 2.6 -7.8 1 0 1.4 1.5 1.4 5.5 0 4.8 -0.2 5.5 -2 5.5 -1.6 0 -2 -0.7 -2 -3.2z"/>
  <path d="M481.2 882.1 c-2 -3.6 -2.1 -4.4 -1.1 -8.5 0.9 -3.6 1.6 -4.6 3.1 -4.6 1.8 0 2 0.4 1.3 3.3 -0.4 1.7 -0.6 3.7 -0.6 4.2 0.1 0.6 0.4 2.9 0.7 5.3 0.8 5.3 -0.6 5.4 -3.4 0.3z"/>
  <path d="M572 881.5 c0 -3.2 -0.2 -3.5 -3 -3.5 -1.6 0 -3 -0.4 -3 -0.9 0 -0.5 -1.6 -1.2 -3.5 -1.5 -1.9 -0.4 -3.5 -1.3 -3.5 -2 0 -2.2 3.5 -2.5 7.7 -0.6 7 3.1 12.4 12 7.3 12 -1.6 0 -2 -0.7 -2 -3.5z"/>
  <path d="M516.3 882.2 c-6.2 -1.7 -7.2 -4.2 -1.8 -4.2 1.9 0 3.5 0.5 3.5 1 0 0.6 0.9 1 2 1 1.5 0 2 -0.7 2 -2.5 0 -1.9 0.5 -2.5 2.1 -2.5 1.7 0 2 0.4 1.5 2.3 -0.3 1.2 -0.6 3.2 -0.6 4.5 0 2.6 -1.2 2.6 -8.7 0.4z"/>
  <path d="M502.2 876.5 c-1.6 -3.5 -1.5 -3.7 1.1 -3.3 1.6 0.2 2.3 1.1 2.5 3.1 0.4 3.5 -2 3.7 -3.6 0.2z"/>
  <path d="M476.5 610.5 c-2.2 -0.8 -5.2 -2.8 -6.7 -4.5 -2.4 -2.6 -2.8 -3.9 -2.8 -9.3 0 -6.2 0 -6.2 19.8 -42 l19.7 -35.7 23 0 23 0 19.8 35.7 19.7 35.6 0 6.7 c0 6.5 -0.2 6.9 -3.4 9.8 -7.4 6.5 -21.8 6.5 -29.1 0.1 l-3.3 -3 -3.7 2.5 c-4.9 3.3 -13.1 5 -24.5 5 -11.2 0 -19.6 -1.7 -24.3 -4.8 l-3.3 -2.3 -3.2 2.8 c-5.3 4.7 -13.2 6 -20.7 3.4z"/>
 </g>
 <g fill="#d3d4d6">
  <path d="M526 898.5 c0 -2.1 2.4 -2.9 4.9 -1.5 3.2 1.6 2.5 3 -1.4 3 -2.5 0 -3.5 -0.4 -3.5 -1.5z"/>
  <path d="M501 888.5 c0 -2.4 0.1 -2.5 3.2 -1.2 4.6 1.9 4.8 3.7 0.4 3.7 -3.2 0 -3.6 -0.3 -3.6 -2.5z"/>
  <path d="M509 876 c0 -2.1 2.3 -2.6 6.8 -1.4 4.1 1.1 2.6 3.4 -2.3 3.4 -3.8 0 -4.5 -0.3 -4.5 -2z"/>
  <path d="M536 876.6 c0 -1.4 2.9 -2.6 6.8 -2.6 1.5 0 2.2 0.6 2.2 2 0 1.7 -0.7 2 -4.5 2 -3.2 0 -4.5 -0.4 -4.5 -1.4z"/>
  <path d="M502 875.5 c-0.7 -0.9 -1 -1.8 -0.7 -2.1 1.1 -1.1 6.7 0.8 6.7 2.2 0 1.9 -4.4 1.8 -6 -0.1z"/>
  <path d="M546 875.6 c0 -1.5 1.7 -2 10.3 -3.1 4.2 -0.6 4.7 -0.4 4.7 1.3 0 1.6 -1 2 -5.2 2.6 -7.9 0.9 -9.8 0.8 -9.8 -0.8z"/>
  <path d="M485.8 873.8 c-2.8 -0.6 -4.8 -1.6 -4.8 -2.3 0 -2.2 1.7 -2.7 5.7 -1.6 2.1 0.5 5 1.2 6.5 1.5 1.9 0.4 2.6 1.1 2.2 2.1 -0.7 1.7 -2.7 1.7 -9.6 0.3z"/>
  <path d="M467 802.5 l0 -15.5 18.5 0 18.5 0 0 15.5 0 15.5 -18.5 0 -18.5 0 0 -15.5z"/>
  <path d="M552 802.5 l0 -15.5 19.5 0 19.5 0 0 15.5 0 15.5 -19.5 0 -19.5 0 0 -15.5z"/>
 </g>
 <g fill="#eff1f2">
  <path d="M501 802.5 l0 -15.5 27 0 27 0 0 15.5 0 15.5 -27 0 -27 0 0 -15.5z"/>
 </g>
 <g fill="#ffffff">
  <path d="M533.5 921.4 l-12.7 -19.8 3.3 -2.8 c1.9 -1.5 3.9 -2.6 4.4 -2.4 5.7 1.9 5.5 2.1 5.5 -3.1 0 -2.6 0.3 -7.8 0.6 -11.4 l0.7 -6.6 14.3 -1.7 c13.2 -1.6 14.5 -1.6 17.7 -0.1 6.6 3.1 8.2 5.8 8.5 14.4 l0.4 7.7 -14.2 21.9 c-7.8 12.1 -14.6 22.4 -15 22.8 -0.4 0.4 -6.4 -8.1 -13.5 -18.9z"/>
  <path d="M489.7 897.7 c-11.1 -20.7 -10.6 -19.4 -9.5 -23.5 0.5 -2 1.3 -4 1.6 -4.4 0.4 -0.3 3.7 0 7.3 0.8 6.4 1.5 6.5 1.6 6.1 4.4 -0.3 1.9 0.3 3.9 1.7 5.9 1.2 1.6 2.1 3.3 2.1 3.8 0 0.6 3.2 2.1 7 3.4 3.9 1.3 7 2.6 7 3 0 0.4 -4.3 3.9 -9.5 7.8 l-9.4 7.1 -4.4 -8.3z"/>
  <path d="M512.9 881.2 c-7.9 -2.1 -9.7 -3 -10.7 -5.1 -0.7 -1.3 -1.1 -2.6 -0.9 -2.7 0.2 -0.2 3.2 0.1 6.7 0.6 3.6 0.5 9.1 1 12.4 1 4.9 0 5.7 0.3 5.2 1.6 -0.3 0.9 -0.6 2.9 -0.6 4.5 0 3.4 0.3 3.4 -12.1 0.1z"/>
 </g>
</svg>